<?xml version="1.0" standalone="no"?>
<!DOCTYPE svg PUBLIC "-//W3C//DTD SVG 20010904//EN"
 "http://www.w3.org/TR/2001/REC-SVG-20010904/DTD/svg10.dtd">
<svg version="1.0" xmlns="http://www.w3.org/2000/svg"
 width="1600.000000pt" height="1345.000000pt" viewBox="0 0 1600.000000 1345.000000"
 preserveAspectRatio="xMidYMid meet">

<g transform="translate(0.000000,1345.000000) scale(0.100000,-0.100000)"
fill="#000000" stroke="none">
<path d="M12310 13170 c0 -5 5 -10 11 -10 5 0 7 5 4 10 -3 6 -8 10 -11 10 -2
0 -4 -4 -4 -10z"/>
<path d="M12073 13154 c-18 -8 -33 -19 -33 -24 0 -14 -18 -12 -23 3 -2 6 -3 4
-1 -7 2 -16 -22 -32 -42 -26 -4 1 -10 -4 -15 -11 -4 -7 -20 -14 -36 -15 -57
-5 -59 -5 -38 -14 17 -7 15 -9 -12 -9 -22 -1 -33 -6 -33 -15 0 -8 -9 -17 -19
-21 -11 -3 -22 -12 -25 -20 -3 -8 -14 -15 -25 -15 -11 0 -23 -5 -27 -11 -3 -6
-17 -9 -30 -6 -16 3 -24 0 -24 -9 0 -7 -9 -18 -20 -24 -13 -7 -20 -7 -20 -1 0
6 -12 -1 -26 -14 -15 -14 -35 -25 -46 -25 -10 0 -26 -4 -36 -9 -53 -27 -72
-33 -86 -28 -9 4 -15 1 -13 -6 1 -6 -9 -13 -23 -15 -20 -2 -22 -1 -10 7 8 6
10 11 4 11 -6 0 -18 -9 -25 -20 -15 -21 -59 -28 -94 -15 -14 5 -16 4 -7 -3 17
-12 -5 -22 -49 -22 -16 0 -29 -5 -29 -11 0 -6 -6 -9 -14 -6 -8 3 -31 -3 -50
-13 -20 -10 -45 -16 -56 -13 -11 3 -20 0 -20 -6 0 -6 -17 -11 -40 -11 -22 0
-40 -4 -40 -10 0 -5 -22 -10 -50 -10 -27 0 -50 -4 -50 -10 0 -5 -11 -10 -25
-10 -32 0 -107 -30 -121 -48 -6 -8 -16 -12 -21 -9 -6 4 -16 0 -23 -8 -7 -8
-16 -13 -20 -10 -5 3 -14 -1 -22 -8 -7 -7 -32 -19 -55 -26 -24 -8 -43 -20 -43
-27 0 -7 -5 -16 -12 -20 -8 -5 -9 0 -6 14 4 12 2 20 -3 16 -5 -3 -9 -11 -9
-19 0 -14 -28 -29 -49 -26 -7 1 -10 -2 -6 -9 4 -6 -1 -17 -11 -25 -14 -10 -21
-10 -26 -2 -5 7 -8 2 -8 -12 0 -21 -2 -22 -17 -10 -15 12 -16 12 -11 -8 4 -15
1 -24 -11 -28 -9 -3 -27 -19 -41 -36 -14 -17 -35 -42 -47 -55 -13 -14 -25 -35
-28 -47 -3 -12 -23 -31 -43 -42 -23 -12 -38 -29 -40 -42 -2 -13 -10 -23 -20
-23 -9 0 -28 -16 -42 -35 -18 -26 -31 -34 -47 -32 -14 3 -23 -1 -23 -8 0 -7
-13 -27 -30 -45 -16 -18 -27 -37 -23 -44 3 -6 3 -8 -1 -4 -4 3 -29 -17 -55
-45 -26 -29 -65 -70 -87 -93 -63 -66 -159 -174 -162 -185 -2 -5 -9 -9 -16 -9
-6 0 -38 -30 -71 -66 -33 -37 -66 -72 -73 -78 -7 -6 -23 -21 -34 -33 -12 -13
-26 -23 -30 -23 -10 0 -58 -50 -58 -60 0 -4 -12 -21 -27 -37 -16 -17 -42 -47
-60 -66 -18 -20 -35 -48 -39 -63 -4 -14 -15 -29 -25 -31 -11 -3 -19 -12 -19
-19 0 -8 -7 -17 -15 -20 -8 -3 -19 -21 -25 -40 -6 -19 -17 -34 -23 -34 -7 0
-23 -19 -37 -42 -14 -22 -30 -46 -35 -52 -6 -6 -35 -53 -65 -103 -30 -51 -60
-93 -66 -93 -7 0 -15 -15 -18 -34 -4 -19 -13 -39 -20 -45 -8 -7 -17 -27 -20
-46 -4 -19 -12 -38 -19 -42 -17 -11 -104 -164 -113 -198 -4 -17 -11 -24 -20
-21 -8 3 -14 1 -14 -5 0 -17 -50 -113 -64 -124 -8 -6 -18 -26 -23 -45 -6 -19
-24 -57 -42 -84 -17 -28 -31 -56 -31 -63 0 -7 -13 -34 -29 -60 -19 -30 -26
-51 -21 -58 11 -14 -17 -58 -31 -50 -5 3 -7 0 -4 -7 2 -7 0 -29 -4 -48 -5 -19
-9 -27 -10 -17 -2 26 -18 21 -23 -8 -3 -13 -2 -22 3 -20 4 3 10 1 14 -5 3 -5
-1 -10 -9 -10 -10 0 -16 -9 -16 -23 0 -13 -9 -50 -20 -82 -11 -32 -20 -68 -20
-81 0 -13 -5 -26 -10 -29 -6 -4 -8 -11 -4 -16 3 -6 -1 -18 -9 -27 -8 -9 -17
-44 -21 -77 -4 -32 -10 -62 -14 -65 -5 -3 -13 -30 -19 -60 -7 -30 -19 -84 -28
-120 -15 -56 -16 -99 -10 -325 9 -349 11 -387 23 -426 6 -19 14 -67 17 -107 4
-39 11 -74 15 -77 5 -3 11 -28 15 -57 4 -28 15 -59 24 -69 9 -10 27 -54 40
-99 15 -48 31 -85 42 -90 9 -6 20 -22 24 -37 9 -38 79 -149 92 -146 6 1 27
-15 47 -37 20 -22 38 -40 41 -40 2 0 20 -15 39 -34 18 -19 57 -43 85 -53 28
-10 51 -21 51 -24 0 -3 11 -4 25 -1 19 3 25 0 26 -14 0 -11 3 -14 6 -6 12 31
23 6 23 -54 0 -76 19 -204 31 -204 4 0 13 -26 19 -57 12 -63 39 -143 52 -158
4 -5 8 -18 8 -30 0 -12 5 -26 10 -31 6 -6 12 -26 15 -45 2 -18 11 -38 19 -44
8 -6 18 -24 22 -41 4 -16 11 -34 16 -40 4 -6 5 -20 1 -29 -4 -13 -3 -16 5 -11
7 4 12 2 12 -3 0 -6 -4 -11 -10 -11 -5 0 -10 -4 -10 -10 0 -5 6 -9 13 -7 7 1
13 -12 15 -32 2 -19 10 -40 17 -45 8 -6 17 -39 20 -76 3 -36 13 -108 23 -160
13 -75 16 -149 14 -345 -1 -137 -6 -295 -11 -350 -28 -290 -36 -351 -45 -357
-7 -5 -6 -8 3 -8 12 0 11 -3 -2 -12 -15 -11 -17 -35 -19 -172 -1 -138 1 -160
15 -171 20 -14 22 -35 5 -35 -7 0 -6 -5 4 -12 8 -7 25 -30 37 -50 12 -21 37
-48 54 -60 33 -24 103 -58 118 -58 23 0 92 -57 109 -89 16 -33 44 -165 42
-201 0 -8 6 -51 15 -95 17 -94 64 -174 100 -175 12 0 25 -5 28 -10 9 -14 85
-50 107 -50 10 0 18 -5 18 -11 0 -5 -3 -8 -7 -6 -5 3 -9 -14 -10 -36 -2 -23
-6 -91 -9 -150 l-6 -108 45 -42 c25 -23 67 -53 93 -65 115 -56 136 -68 145
-84 5 -10 16 -18 25 -18 8 0 17 -13 21 -30 3 -16 9 -30 13 -30 8 0 25 -49 21
-63 -1 -5 7 -19 18 -33 12 -16 22 -49 26 -92 11 -104 12 -113 30 -182 24 -91
51 -147 75 -153 11 -3 23 -13 27 -24 8 -20 16 -31 55 -74 17 -18 25 -35 21
-46 -4 -11 -3 -14 6 -9 7 5 20 -3 32 -18 11 -14 27 -26 34 -26 8 0 17 -9 20
-21 5 -15 10 -17 20 -9 10 8 14 7 17 -2 3 -7 11 -13 19 -13 8 -1 36 -5 63 -9
48 -9 128 3 189 26 15 6 30 8 33 5 3 -3 -8 -36 -26 -73 -40 -85 -62 -241 -47
-337 13 -86 -17 -287 -43 -287 -5 0 -16 -24 -24 -54 -9 -29 -22 -59 -30 -65
-8 -7 -17 -23 -20 -36 -4 -14 -11 -25 -16 -25 -5 0 -12 -16 -16 -35 -3 -20
-15 -40 -25 -45 -10 -6 -21 -27 -25 -48 -3 -20 -13 -42 -20 -48 -8 -7 -14 -16
-13 -20 1 -5 0 -16 -3 -24 -15 -40 -28 -101 -34 -155 -3 -33 -12 -74 -20 -91
-8 -18 -13 -43 -13 -55 1 -13 -3 -37 -10 -52 -6 -16 -11 -57 -11 -91 0 -34 -3
-66 -6 -69 -4 -4 -8 -26 -10 -49 -2 -24 -5 -70 -8 -103 -12 -152 -14 -255 -5
-249 5 3 9 11 8 17 -6 47 3 89 23 109 12 12 24 29 25 38 8 45 12 86 17 171 8
120 15 184 27 232 6 20 12 56 14 78 2 23 9 46 14 53 5 6 15 55 22 109 10 76
17 100 31 108 10 5 18 19 18 31 0 24 40 108 51 108 4 0 15 20 25 45 9 25 20
45 24 45 4 0 21 33 39 72 17 40 39 86 47 102 21 41 26 88 27 276 2 184 23 306
58 341 23 23 17 26 94 -43 16 -16 62 -44 101 -63 68 -34 73 -35 175 -32 110 3
135 -5 117 -36 -6 -11 -5 -17 1 -17 6 0 10 -80 11 -211 1 -242 10 -328 47
-425 14 -38 32 -89 41 -114 8 -25 22 -53 30 -62 18 -21 56 -103 67 -143 5 -19
9 -25 13 -15 3 8 12 -6 22 -35 10 -28 29 -79 43 -115 14 -36 33 -114 42 -175
9 -60 18 -111 21 -114 11 -11 126 -12 140 -1 7 7 14 9 14 4 1 -5 7 2 15 16 8
14 14 19 15 13 0 -21 18 -15 25 8 4 11 12 18 18 16 12 -4 37 36 37 59 0 8 3
13 8 13 32 -5 45 16 15 24 -11 3 -7 5 10 6 16 0 26 5 22 11 -3 5 -1 10 4 10 6
0 11 6 11 14 0 7 7 31 16 52 15 34 18 36 24 19 6 -16 8 -14 11 15 3 21 9 34
17 32 6 -1 12 2 12 7 0 5 -6 12 -12 14 -8 3 -6 6 5 6 10 1 17 7 16 14 -3 26 1
36 15 31 8 -3 18 7 26 28 8 18 19 36 26 40 6 4 15 23 18 42 4 19 13 40 22 47
8 7 13 18 10 26 -3 7 6 20 19 29 14 9 28 28 32 43 7 31 55 125 66 129 4 2 7 9
7 15 1 7 9 30 20 52 11 22 19 46 20 53 0 7 8 22 19 33 10 11 21 33 24 48 3 16
12 35 20 43 8 7 20 32 27 53 13 40 34 90 69 168 11 23 23 54 26 70 4 15 11 27
16 27 5 0 9 9 9 20 0 11 5 20 10 20 6 0 10 9 10 20 0 11 9 35 19 54 11 19 17
37 14 40 -3 3 2 12 11 21 9 9 14 21 10 26 -3 6 1 21 10 34 9 13 16 31 16 40 0
8 4 15 8 15 5 0 14 22 21 50 7 27 16 50 21 50 6 0 30 68 35 100 1 6 31 67 49
100 36 66 107 216 106 226 0 7 6 14 14 17 8 3 20 31 27 61 7 31 15 56 19 56 4
0 11 20 14 45 4 25 14 52 23 60 8 9 19 46 25 83 13 87 30 152 40 152 4 0 8 8
8 19 0 10 7 24 15 31 8 7 17 27 21 46 3 19 12 34 20 34 8 0 14 5 14 11 0 5 -5
7 -12 3 -7 -4 -1 8 13 27 13 19 25 41 25 49 3 27 23 70 34 70 5 0 10 7 10 16
0 8 -4 12 -10 9 -5 -3 -10 -1 -10 4 0 6 3 11 8 11 9 0 63 67 66 83 8 36 66
169 82 188 8 8 14 23 14 33 0 9 7 19 16 23 8 3 13 12 10 19 -3 7 3 19 13 26
15 11 33 45 36 68 1 12 47 80 55 80 4 0 11 16 14 36 4 19 14 38 22 41 7 3 14
14 14 24 0 19 16 42 60 89 14 15 25 32 26 38 2 29 5 33 14 27 6 -3 10 1 10 10
0 9 12 28 28 42 17 17 21 24 10 20 -10 -4 -18 -5 -18 -3 0 7 90 142 109 165
12 13 21 30 21 36 0 7 7 18 15 25 13 11 13 15 3 21 -10 7 -9 9 4 9 10 0 28 18
40 40 13 22 28 38 35 36 6 -3 14 8 18 24 3 15 16 36 27 46 21 19 21 19 9 -3
-17 -33 -13 -39 9 -15 11 12 20 36 21 54 1 31 1 32 9 8 7 -22 14 -12 11 16 -1
6 11 16 25 23 17 7 24 17 20 27 -3 8 -2 12 4 9 6 -3 10 3 10 13 0 11 7 25 15
32 11 9 15 10 15 1 0 -8 5 -7 15 3 17 17 20 30 5 21 -17 -10 -11 5 11 28 15
17 19 18 14 4 -6 -13 -3 -16 9 -11 8 3 18 14 21 25 4 10 11 19 17 19 5 0 8 6
5 14 -3 7 10 28 29 47 19 18 34 29 34 25 0 -6 31 28 58 64 1 2 7 -1 11 -9 6
-9 10 -7 14 9 3 12 10 19 15 16 5 -3 29 12 52 34 23 22 46 37 52 34 5 -3 20 1
33 10 13 9 31 16 39 16 8 0 20 8 25 18 7 11 13 13 18 6 5 -6 24 -9 43 -8 78 7
197 7 230 -1 19 -5 42 -9 50 -10 8 -1 23 -6 33 -10 9 -4 24 -5 32 -1 8 3 15 1
15 -5 0 -6 4 -8 9 -4 6 3 38 -4 72 -15 46 -16 64 -18 69 -10 14 23 -2 46 -46
66 -24 10 -44 23 -44 28 0 5 -6 3 -13 -3 -8 -6 -16 -9 -19 -6 -2 2 -22 7 -44
10 -21 4 -45 14 -53 23 -10 12 -15 14 -18 4 -3 -6 -10 -9 -16 -5 -7 4 -73 8
-147 8 -107 0 -134 3 -132 13 1 8 -2 11 -8 7 -5 -3 -10 -13 -10 -22 0 -9 -6
-13 -14 -10 -11 4 -13 1 -10 -11 4 -11 -2 -8 -17 8 l-22 25 5 -25 c4 -22 1
-25 -28 -26 -18 0 -31 3 -28 7 2 4 -3 12 -12 17 -27 15 -40 230 -26 447 7 100
16 181 22 183 5 2 10 19 10 37 0 19 5 37 10 40 6 3 10 17 10 31 0 13 4 32 9
42 5 9 14 40 20 67 7 28 18 62 26 77 7 15 16 45 20 68 4 22 11 42 15 45 5 3
14 31 21 63 7 31 15 59 18 62 11 10 31 50 31 63 0 7 11 35 24 63 48 100 56
123 56 154 0 17 6 43 14 58 22 44 54 190 61 277 4 44 10 85 13 90 4 6 8 21 10
35 1 14 7 37 13 52 7 16 9 57 6 99 -3 39 -1 82 4 96 5 13 10 51 10 84 1 33 6
62 10 65 13 8 11 42 -3 47 -10 4 -9 8 2 16 9 6 14 25 13 50 -1 23 1 41 5 41 4
0 8 30 10 68 1 37 7 69 12 70 14 5 12 29 -2 35 -10 4 -9 8 2 16 12 8 15 42 16
183 1 217 -3 271 -22 264 -8 -3 -14 -1 -14 4 0 6 7 10 15 10 8 0 15 5 15 11 0
6 -6 9 -12 6 -9 -3 -13 10 -14 47 -2 81 -15 209 -24 231 -12 30 -49 184 -80
334 -18 89 -33 139 -44 147 -9 6 -16 16 -15 20 2 5 -1 33 -5 62 -5 34 -13 52
-22 52 -10 0 -11 6 -5 23 7 17 4 29 -9 47 -10 13 -15 30 -12 39 4 10 1 12 -9
6 -10 -6 -11 -5 -3 4 17 19 5 68 -19 75 -17 4 -18 7 -7 20 8 11 9 16 1 16 -6
0 -11 11 -11 25 0 14 -4 25 -10 25 -5 0 -10 10 -10 22 0 21 0 21 -14 3 -14
-19 -14 -19 -14 5 -1 46 -26 130 -39 130 -12 0 -17 18 -14 47 1 6 -3 14 -9 18
-5 3 -10 13 -10 22 0 8 -9 26 -20 40 -11 14 -20 36 -20 49 0 12 -4 25 -9 29
-5 3 -15 30 -21 59 -8 40 -16 55 -31 59 -11 3 -19 9 -18 14 2 4 -3 22 -10 38
-8 17 -18 41 -24 55 -6 14 -16 32 -23 40 -6 8 -17 31 -23 51 -6 20 -25 57 -41
83 -16 25 -33 58 -36 72 -4 14 -13 28 -20 31 -7 2 -18 20 -24 39 -6 19 -16 34
-21 34 -5 0 -9 7 -9 14 0 8 -11 27 -25 42 -14 15 -25 32 -25 39 0 11 -16 33
-53 75 -7 8 -21 28 -31 43 -12 20 -23 27 -34 22 -13 -5 -14 -3 -5 6 9 9 9 15
0 24 -7 7 -19 23 -27 35 -8 13 -23 31 -32 41 -9 10 -24 31 -33 46 -38 68 -53
88 -65 85 -6 -1 -9 1 -6 6 3 5 -4 15 -15 22 -10 8 -19 21 -19 30 0 19 -34 50
-55 50 -9 0 -23 17 -33 37 -23 51 -52 83 -74 83 -11 0 -18 7 -18 19 0 23 -22
40 -28 23 -2 -7 -8 -9 -14 -6 -6 4 -6 9 3 14 16 10 -37 59 -64 60 -10 0 -16 4
-13 8 3 5 -8 21 -25 36 -16 15 -29 31 -29 36 0 5 -12 11 -27 15 -21 4 -33 17
-45 46 -10 23 -22 38 -28 34 -6 -3 -10 3 -10 14 0 12 -5 21 -11 21 -16 0 -48
42 -49 64 0 15 -3 16 -15 6 -12 -10 -16 -9 -21 4 -4 10 -12 15 -19 13 -6 -3
-20 10 -30 29 -10 19 -25 34 -34 35 -10 0 -12 2 -3 6 17 7 15 23 -3 23 -8 0
-15 9 -15 20 0 11 -3 19 -7 19 -5 -1 -17 -1 -28 0 -19 2 -19 2 -2 15 23 18 22
21 -9 22 -14 1 -32 11 -40 23 -9 12 -24 21 -35 21 -10 0 -19 7 -19 15 0 8 -4
15 -9 15 -6 0 -18 13 -27 29 -10 17 -23 27 -31 24 -7 -3 -13 0 -13 6 0 6 -4
11 -9 11 -5 0 -22 5 -38 12 -15 6 -31 11 -35 10 -5 -1 -8 2 -8 8 0 5 -8 7 -17
3 -10 -3 -15 -3 -11 2 12 12 -12 29 -107 75 -49 24 -105 60 -125 80 -19 19
-41 35 -47 36 -32 3 -34 5 -28 33 3 17 2 32 -4 36 -7 3 -11 -2 -11 -14 0 -11
-4 -23 -10 -26 -5 -3 -10 -1 -10 4 0 6 -4 11 -9 11 -6 0 -23 12 -38 26 -15 14
-37 30 -48 36 -49 23 -87 45 -93 54 -6 9 -76 46 -94 50 -5 1 -10 3 -13 4 -3 1
-8 3 -12 4 -5 1 -14 5 -20 9 -7 5 -17 6 -22 2 -5 -3 -12 -1 -16 5 -8 12 -12
12 -52 -6z m88 -94 c80 -21 95 -27 174 -78 55 -35 86 -58 116 -84 10 -10 23
-18 28 -18 6 0 16 -9 24 -20 7 -11 27 -25 43 -32 63 -28 181 -103 210 -135 17
-19 35 -33 40 -32 22 4 34 -2 34 -17 0 -10 6 -14 14 -11 8 3 22 -3 31 -13 9
-10 23 -16 31 -13 8 3 14 0 14 -6 0 -6 6 -11 13 -11 8 0 19 -12 26 -27 8 -18
15 -23 20 -15 5 9 17 4 39 -18 18 -16 36 -30 42 -30 5 0 10 -4 10 -9 0 -16
381 -411 397 -411 5 0 16 -11 23 -25 7 -13 16 -23 19 -22 4 1 33 -24 66 -55
32 -32 63 -58 68 -58 5 0 6 -7 3 -16 -3 -9 1 -25 9 -37 8 -12 15 -16 15 -10 0
7 -4 15 -10 18 -5 3 -10 11 -10 16 0 5 11 2 25 -7 14 -9 23 -20 20 -24 -3 -5
-1 -19 4 -32 9 -20 10 -21 10 -3 1 16 7 12 34 -20 17 -22 51 -59 75 -83 23
-23 42 -47 42 -53 0 -6 11 -24 25 -41 14 -16 25 -40 25 -54 0 -13 6 -24 13
-24 8 0 19 -11 25 -25 6 -14 15 -25 20 -25 5 0 33 -37 63 -82 29 -46 61 -89
71 -96 10 -7 18 -19 18 -26 0 -8 7 -17 15 -20 10 -4 15 -16 13 -33 -2 -21 1
-27 14 -25 10 1 21 -9 30 -28 7 -16 16 -30 20 -30 5 0 8 -4 8 -9 0 -5 8 -26
17 -47 9 -22 16 -42 15 -46 -1 -5 2 -8 7 -8 11 0 41 -56 41 -77 0 -7 4 -13 8
-13 5 0 14 -10 20 -22 36 -75 72 -160 78 -182 3 -14 9 -26 13 -26 4 0 13 -20
20 -45 7 -25 17 -45 21 -45 4 0 13 -20 19 -44 6 -25 15 -48 21 -51 5 -3 10
-14 10 -25 0 -10 9 -35 20 -57 10 -21 33 -76 51 -123 17 -47 37 -98 44 -115 7
-16 16 -46 20 -65 4 -19 10 -37 14 -40 3 -3 23 -57 44 -121 29 -88 37 -124 32
-151 -5 -26 -3 -38 7 -44 8 -5 20 -38 27 -74 7 -36 26 -104 42 -152 15 -47 33
-112 38 -145 5 -32 17 -98 26 -147 9 -49 13 -96 11 -103 -3 -7 -2 -13 2 -13
15 0 17 -435 2 -545 -16 -125 -17 -127 -31 -136 -10 -6 -11 -9 -1 -9 15 0 16
-32 2 -46 -6 -6 -13 -60 -16 -120 -3 -60 -10 -127 -16 -149 -19 -73 -21 -106
-5 -118 13 -11 12 -24 -10 -107 -14 -52 -26 -111 -27 -131 -1 -19 -5 -39 -8
-45 -3 -5 -6 -29 -7 -54 -1 -47 -6 -70 -23 -110 -20 -48 -40 -105 -68 -197 -7
-24 -17 -43 -21 -43 -4 0 -10 -15 -14 -32 -4 -18 -13 -42 -20 -53 -7 -11 -16
-36 -20 -55 -4 -19 -13 -44 -21 -55 -7 -11 -20 -47 -29 -80 -40 -147 -51 -181
-58 -193 -5 -7 -13 -43 -18 -79 -5 -37 -13 -70 -18 -73 -9 -5 -19 -55 -41
-210 -12 -81 -9 -270 6 -444 5 -56 9 -69 25 -73 27 -7 24 -23 -5 -23 -14 0
-34 -13 -50 -32 -15 -18 -29 -31 -33 -29 -12 9 -133 -100 -133 -120 0 -5 -6
-9 -13 -9 -7 0 -23 -14 -37 -31 -14 -17 -44 -52 -67 -78 -25 -27 -43 -56 -43
-70 0 -16 -4 -21 -14 -18 -9 4 -26 -8 -43 -30 -15 -19 -37 -44 -47 -56 -11
-11 -20 -28 -21 -36 0 -9 -4 -16 -9 -16 -11 0 -35 -48 -29 -58 2 -4 -1 -6 -8
-5 -15 4 -89 -102 -84 -119 2 -7 -2 -13 -10 -13 -8 0 -21 -13 -30 -30 -9 -16
-19 -30 -24 -30 -5 0 -12 -15 -15 -33 -3 -18 -15 -39 -26 -47 -11 -8 -20 -22
-20 -32 0 -10 -5 -18 -10 -18 -6 0 -15 -12 -20 -26 -6 -15 -20 -40 -31 -55
-13 -18 -18 -36 -14 -49 5 -15 2 -20 -14 -20 -13 0 -23 -11 -31 -36 -7 -19
-18 -38 -26 -41 -8 -3 -14 -13 -14 -23 0 -27 -11 -51 -20 -45 -5 3 -14 -11
-20 -31 -7 -20 -20 -44 -29 -54 -33 -38 -41 -50 -41 -64 0 -8 -22 -51 -49 -95
-27 -44 -52 -89 -56 -100 -3 -12 -11 -21 -16 -21 -5 0 -9 -9 -9 -20 0 -11 -9
-29 -19 -39 -10 -10 -22 -34 -26 -52 -7 -32 -55 -130 -55 -113 -1 21 -18 -24
-25 -64 -4 -24 -13 -46 -21 -49 -8 -3 -14 -11 -14 -17 0 -18 -24 -66 -32 -66
-4 0 -11 -18 -14 -40 -4 -21 -15 -47 -25 -56 -11 -9 -19 -22 -19 -28 0 -6 -11
-33 -25 -61 -13 -27 -25 -55 -25 -61 0 -6 -9 -19 -20 -29 -25 -22 -27 -47 -3
-38 11 4 14 3 9 -5 -4 -7 -13 -12 -19 -12 -21 -1 -65 -84 -87 -163 -12 -42
-28 -89 -36 -105 -7 -15 -14 -41 -14 -59 0 -17 -4 -35 -10 -38 -5 -3 -10 -18
-10 -32 0 -34 -21 -105 -36 -120 -6 -7 -15 -32 -18 -56 -4 -24 -13 -53 -21
-63 -8 -11 -15 -28 -15 -39 0 -17 -2 -18 -11 -5 -8 12 -9 10 -4 -8 4 -15 1
-30 -8 -40 -8 -9 -18 -32 -22 -50 -4 -18 -11 -30 -16 -26 -5 3 -9 -8 -9 -25 0
-21 -6 -32 -20 -36 -23 -7 -26 -21 -7 -28 8 -3 2 -14 -18 -32 -16 -14 -24 -24
-17 -20 15 8 16 -12 1 -54 -9 -25 -14 -30 -21 -19 -7 10 -8 8 -7 -7 3 -23 -20
-105 -33 -119 -4 -6 -8 -17 -8 -26 0 -9 -9 -26 -20 -38 -11 -12 -20 -29 -20
-38 0 -8 -9 -27 -19 -41 -11 -13 -19 -30 -17 -36 1 -7 1 -9 -1 -4 -3 4 -9 7
-14 7 -13 0 -11 -28 3 -32 7 -3 8 -10 4 -17 -7 -11 -10 -11 -17 0 -6 10 -9 6
-9 -12 0 -33 -24 -91 -44 -108 -8 -7 -17 -30 -21 -51 -4 -21 -13 -41 -20 -44
-7 -2 -15 -15 -17 -28 -2 -13 -9 -22 -16 -20 -6 1 -12 -7 -12 -17 0 -11 -5
-23 -11 -26 -6 -4 -8 -14 -5 -22 4 -10 2 -13 -8 -10 -10 4 -16 -6 -20 -38 -4
-23 -16 -51 -26 -60 -11 -10 -20 -25 -21 -34 0 -9 -8 -28 -17 -43 -34 -54 -76
-113 -89 -124 -8 -7 -17 -29 -20 -49 -4 -23 -18 -50 -37 -69 -17 -17 -42 -47
-55 -66 -26 -39 -45 -60 -122 -138 -28 -29 -56 -51 -62 -49 -6 2 -12 25 -15
53 -2 27 -8 51 -12 54 -5 3 -14 37 -20 75 -6 39 -17 80 -25 92 -8 11 -20 43
-26 70 -7 26 -30 83 -51 125 -21 42 -38 82 -38 87 0 6 -7 11 -15 11 -8 0 -15
6 -15 13 -1 6 -9 30 -20 52 -11 22 -19 47 -20 55 0 8 -9 29 -19 46 -11 18 -24
60 -29 95 -8 57 -8 66 9 80 11 9 19 24 19 33 0 9 5 16 10 16 6 0 10 6 10 13 0
7 17 32 38 54 33 38 61 78 116 167 10 17 24 35 32 39 8 4 14 14 14 21 0 6 11
27 25 46 14 19 25 44 25 57 0 13 6 23 13 23 7 0 19 16 26 35 7 19 17 35 22 35
5 0 9 6 9 13 0 8 11 27 25 43 14 16 25 34 25 40 0 7 16 35 35 64 19 28 40 70
46 93 6 23 20 48 30 55 11 7 17 18 14 23 -4 5 -1 9 6 9 8 0 7 5 -2 17 -12 14
-12 16 1 11 11 -3 18 9 28 46 7 28 19 54 27 59 8 4 15 21 15 37 0 16 5 32 10
35 6 4 8 10 5 14 -4 8 17 55 47 101 9 14 19 41 23 60 8 44 28 90 37 90 5 0 8
6 8 14 0 18 40 117 55 136 7 8 18 39 26 68 7 28 16 52 21 52 4 0 8 8 8 18 0
10 6 26 14 37 7 11 19 47 25 80 7 33 16 69 21 80 5 11 20 54 33 95 25 77 47
131 57 140 11 10 30 61 30 80 0 11 4 20 10 20 5 0 15 20 21 45 6 25 14 45 18
45 4 0 13 17 20 38 8 20 17 39 20 42 9 8 41 70 41 82 0 5 7 16 15 24 8 9 15
24 15 35 0 10 4 19 9 19 5 0 17 21 27 48 10 26 20 49 23 52 11 10 30 73 25 81
-3 5 2 9 10 9 9 0 25 18 36 40 12 23 27 43 34 46 8 3 22 24 32 47 11 23 34 58
52 77 17 19 32 42 32 52 0 10 7 18 15 18 9 0 22 12 28 28 20 42 58 102 66 102
5 0 16 16 27 35 10 19 22 35 25 35 4 0 23 24 42 53 20 28 47 61 61 71 14 10
26 25 26 33 0 7 8 17 18 20 9 4 44 33 76 65 33 32 63 58 67 58 4 0 11 9 14 20
3 11 10 20 14 20 5 0 29 20 54 45 26 25 51 45 56 45 5 0 35 25 68 55 32 30 73
65 91 77 17 13 35 31 38 41 3 9 11 17 17 17 12 0 39 22 125 97 24 21 62 49 85
61 23 13 64 38 92 55 27 18 54 32 60 32 14 0 58 26 67 39 13 18 9 26 -17 38
-27 12 -58 3 -138 -44 -26 -15 -53 -28 -60 -28 -7 0 -26 -13 -43 -28 -17 -15
-36 -26 -42 -24 -7 2 -15 -3 -18 -12 -3 -9 -10 -13 -15 -10 -5 3 -6 -2 -3 -10
3 -9 2 -16 -4 -16 -5 0 -12 8 -14 18 -4 16 -19 20 -84 25 -96 8 -221 49 -251
82 -12 14 -26 25 -30 25 -5 0 -17 10 -28 23 -19 21 -20 40 -22 436 -1 227 -5
421 -8 430 -4 9 -9 34 -11 56 -3 22 -9 54 -14 70 -4 17 -11 53 -15 80 -9 70
-73 175 -107 175 -4 0 -8 7 -8 15 0 8 4 15 8 15 4 0 14 62 20 138 15 164 15
175 2 167 -6 -4 -10 8 -10 29 0 20 -4 36 -10 36 -15 0 -12 58 2 62 9 3 8 10
-5 23 -10 9 -16 24 -12 33 3 8 0 21 -6 28 -6 7 -8 17 -5 22 3 5 -2 21 -10 37
-8 16 -12 40 -9 52 3 13 2 23 -2 23 -14 0 -55 102 -51 125 3 15 1 22 -7 18 -7
-2 -17 9 -24 28 -14 41 -14 42 4 36 16 -7 8 15 -32 90 -13 23 -23 50 -23 60 0
15 -2 15 -9 3 -6 -8 -7 -18 -5 -22 3 -4 0 -8 -5 -8 -6 0 -12 6 -12 13 -1 6 -3
23 -4 36 -1 13 -10 28 -19 33 -9 5 -16 20 -16 32 0 49 -148 174 -216 182 -21
3 -46 12 -56 21 -15 13 -36 15 -135 10 -115 -5 -151 -14 -253 -60 -38 -17
-100 -70 -100 -86 0 -10 -19 -34 -87 -109 -23 -26 -43 -53 -43 -59 0 -7 -4
-13 -9 -13 -5 0 -14 -14 -20 -30 -5 -17 -16 -37 -24 -45 -8 -7 -17 -42 -21
-77 -4 -34 -13 -69 -19 -77 -8 -9 -13 -75 -14 -195 -3 -153 0 -193 17 -256 10
-41 22 -91 25 -111 4 -28 13 -40 40 -55 33 -18 36 -18 52 -1 17 17 17 19 -4
36 -24 20 -48 83 -58 156 -4 28 -13 53 -19 57 -14 9 -14 326 0 336 6 4 16 32
22 62 13 57 96 220 113 220 5 0 13 8 16 17 23 59 168 174 246 194 66 17 198
27 237 17 19 -5 46 -12 60 -15 14 -4 38 -18 54 -32 75 -68 137 -137 142 -158
4 -13 10 -23 14 -23 9 0 57 -99 67 -138 3 -13 12 -26 19 -29 8 -3 14 -10 14
-16 0 -6 9 -31 21 -56 11 -25 25 -57 31 -71 6 -14 16 -38 23 -55 8 -16 17 -50
21 -75 3 -25 11 -54 18 -65 38 -69 56 -342 32 -498 -9 -56 -17 -114 -18 -129
-1 -16 -5 -28 -9 -28 -3 0 -14 -46 -23 -102 -9 -57 -21 -104 -26 -106 -6 -2
-10 -15 -10 -28 0 -13 -9 -43 -19 -67 -11 -23 -25 -61 -32 -85 -7 -23 -18 -47
-26 -53 -7 -6 -13 -16 -13 -22 0 -18 -61 -137 -70 -137 -5 0 -12 -10 -16 -22
-4 -13 -22 -39 -40 -58 -19 -19 -34 -40 -34 -46 0 -6 -11 -20 -25 -30 -14 -10
-37 -41 -52 -69 -14 -27 -29 -52 -33 -55 -3 -3 -19 -28 -35 -57 -15 -29 -35
-60 -44 -71 -16 -18 -37 -52 -67 -107 -8 -17 -30 -41 -48 -53 -18 -12 -41 -31
-53 -41 -30 -28 -76 -50 -121 -57 -50 -8 -139 12 -152 35 -5 9 -10 12 -10 6 0
-5 -14 13 -30 40 -31 52 -38 102 -19 136 6 13 7 25 1 32 -5 7 -12 24 -16 40
-8 33 -21 35 -40 5 -22 -36 -27 -89 -16 -166 14 -100 50 -150 136 -192 59 -28
71 -31 127 -25 65 7 90 16 122 46 140 132 172 173 230 291 17 34 33 54 41 51
7 -3 14 5 16 19 2 13 8 22 13 20 6 -2 15 16 21 40 6 24 16 42 23 40 6 -1 16 9
21 23 5 14 25 40 45 58 19 17 35 37 35 43 0 6 7 17 15 24 8 7 33 45 56 86 22
40 44 76 50 79 5 4 9 15 9 25 0 11 12 45 26 77 48 106 54 121 54 137 0 9 9 35
20 57 22 42 33 88 52 207 6 41 16 72 23 72 13 0 46 -95 69 -200 26 -121 33
-255 31 -595 -2 -269 0 -330 14 -385 9 -36 21 -65 26 -64 6 0 18 -10 28 -23
10 -13 26 -23 35 -23 10 0 23 -9 30 -21 7 -12 16 -18 19 -15 3 3 22 -2 42 -10
20 -8 54 -19 76 -25 22 -5 47 -12 55 -14 8 -2 32 -4 53 -4 20 -1 37 -5 37 -11
0 -5 -4 -10 -10 -10 -5 0 -23 -12 -40 -27 -16 -16 -46 -41 -66 -58 -20 -16
-58 -51 -86 -77 -27 -27 -53 -48 -57 -48 -4 0 -17 -8 -29 -17 -11 -10 -41 -34
-65 -53 -25 -19 -53 -47 -63 -62 -11 -16 -23 -28 -27 -28 -10 0 -127 -122
-127 -132 0 -4 -7 -8 -15 -8 -8 0 -15 -6 -15 -12 0 -7 -21 -35 -45 -61 -25
-27 -45 -52 -45 -56 0 -4 -20 -29 -45 -56 -25 -28 -45 -54 -45 -59 0 -5 -7
-16 -15 -25 -8 -9 -34 -45 -57 -81 -23 -36 -54 -80 -70 -98 -15 -18 -28 -39
-28 -47 0 -8 -4 -15 -8 -15 -4 0 -14 -16 -21 -35 -7 -19 -16 -35 -21 -35 -8 0
-100 -156 -100 -171 0 -4 -10 -17 -22 -29 -12 -11 -19 -22 -16 -25 3 -3 -7
-31 -23 -62 -16 -31 -29 -64 -29 -74 0 -9 -7 -19 -14 -22 -8 -3 -20 -24 -26
-47 -6 -22 -15 -38 -19 -35 -5 2 -12 -15 -15 -40 -7 -44 -21 -64 -34 -50 -4 4
-1 10 6 12 17 6 15 23 -3 23 -11 0 -15 -11 -15 -39 0 -65 -11 -98 -36 -112
-17 -9 -22 -18 -18 -31 3 -10 -1 -32 -9 -48 -9 -16 -18 -44 -22 -61 -4 -17 -9
-28 -12 -25 -9 9 -33 -22 -33 -43 0 -12 -5 -21 -11 -21 -7 0 -9 -11 -5 -30 4
-22 2 -30 -9 -30 -8 0 -15 -8 -15 -17 0 -15 2 -16 10 -3 13 20 13 4 -1 -21 -5
-11 -14 -17 -20 -14 -5 4 -9 1 -9 -4 0 -6 5 -11 10 -11 14 0 12 -31 -5 -63 -8
-15 -17 -45 -21 -65 -4 -20 -10 -41 -14 -47 -4 -5 -15 -30 -23 -55 -9 -25 -16
-37 -17 -27 0 9 -5 17 -11 17 -6 0 -8 -11 -5 -28 4 -17 -1 -41 -14 -67 -11
-22 -25 -57 -31 -77 -5 -21 -14 -38 -19 -38 -5 0 -7 -7 -4 -15 4 -8 2 -15 -4
-15 -5 0 -13 -20 -16 -45 -4 -25 -13 -51 -20 -58 -8 -7 -17 -27 -21 -45 -3
-17 -11 -34 -16 -37 -5 -4 -14 -15 -19 -25 -8 -16 -8 -18 5 -14 9 4 15 0 15
-9 0 -19 -24 -39 -35 -29 -4 4 -5 -3 -2 -16 4 -17 -1 -29 -19 -45 -13 -11 -24
-29 -24 -39 0 -11 -4 -17 -9 -14 -5 3 -11 -3 -14 -13 -3 -14 -1 -18 9 -14 8 3
14 1 14 -5 0 -5 -7 -12 -15 -16 -8 -3 -15 -12 -15 -21 0 -8 -5 -15 -12 -15 -6
0 -9 -3 -5 -6 8 -8 -25 -72 -53 -104 -12 -14 -27 -37 -32 -52 -6 -16 -14 -28
-19 -28 -5 0 -9 -9 -9 -19 0 -10 -6 -21 -14 -24 -7 -3 -16 -17 -20 -30 -3 -14
-26 -56 -51 -93 -25 -36 -45 -75 -45 -85 0 -11 -7 -19 -15 -19 -8 0 -15 -6
-15 -14 0 -7 -16 -30 -35 -50 -19 -21 -32 -43 -28 -49 3 -7 3 -9 -2 -5 -8 8
-55 -44 -55 -61 0 -5 -9 -15 -20 -21 -11 -6 -20 -18 -20 -28 -1 -20 -27 -58
-36 -50 -3 4 -8 109 -10 235 -7 352 -10 361 -104 325 -55 -21 -227 8 -271 45
-8 7 -20 13 -26 13 -6 0 -28 16 -49 36 -22 19 -46 39 -54 44 -8 5 -13 11 -10
13 16 15 160 107 167 107 4 0 19 10 33 23 14 13 46 33 71 45 25 12 56 33 69
47 13 14 28 25 33 25 5 0 23 13 39 30 15 16 31 30 34 30 11 0 161 156 179 188
11 18 25 32 31 32 7 0 15 9 19 19 3 11 24 36 45 58 28 26 40 47 40 66 0 15 -4
27 -10 27 -5 0 -7 6 -4 14 4 12 0 13 -23 7 -17 -4 -29 -15 -31 -28 -2 -11 -23
-42 -47 -69 -25 -27 -55 -62 -67 -78 -33 -41 -166 -176 -175 -176 -5 -1 -19
-14 -33 -30 -13 -17 -30 -30 -36 -30 -7 0 -14 -4 -16 -8 -1 -4 -24 -23 -50
-42 -27 -18 -48 -37 -48 -42 0 -4 -9 -8 -20 -8 -11 0 -20 -4 -20 -10 0 -5 -6
-10 -13 -10 -16 0 -89 -38 -102 -53 -6 -7 -22 -19 -37 -27 -15 -8 -51 -29 -80
-47 -134 -80 -282 -96 -367 -40 -22 15 -45 27 -50 27 -12 0 -20 23 -17 47 2
10 1 12 -1 6 -3 -7 -9 -13 -14 -13 -6 0 -7 5 -4 10 3 5 2 10 -3 10 -17 0 -62
52 -62 71 0 11 -4 19 -9 19 -6 0 -13 20 -16 44 -4 25 -14 53 -24 63 -9 10 -16
23 -16 28 -2 41 -19 152 -24 160 -4 6 -8 24 -9 40 -3 27 -11 54 -32 95 -4 9
-11 35 -15 58 -10 61 -79 142 -163 192 -38 22 -74 40 -80 40 -7 0 -12 5 -12
11 0 5 -5 7 -10 4 -13 -8 -59 27 -82 63 -15 21 -18 45 -17 115 1 48 6 90 10
93 5 3 7 10 4 15 -9 14 17 44 40 46 11 1 23 -3 26 -9 4 -6 21 -11 38 -11 19 0
31 -5 31 -14 0 -7 7 -13 16 -13 10 0 14 6 11 14 -10 24 42 27 64 3 16 -18 19
-18 19 -4 0 9 7 17 15 17 8 0 15 5 15 10 0 6 12 10 28 11 15 0 50 13 77 27 44
24 50 31 50 60 1 52 -8 58 -51 31 -38 -23 -48 -27 -92 -34 -13 -2 -29 -8 -36
-14 -7 -6 -55 -9 -122 -7 -138 4 -194 23 -286 99 -58 48 -75 91 -83 217 -3 52
-10 97 -14 100 -4 3 -11 26 -14 53 -6 41 -28 85 -62 122 -9 10 -122 69 -135
71 -12 1 -75 40 -89 55 -56 58 -72 104 -73 217 -1 81 19 306 29 332 4 8 7 17
7 20 1 3 4 10 8 15 3 6 11 93 18 195 7 102 16 189 21 194 12 13 12 103 0 110
-5 4 -7 18 -4 34 13 78 14 105 4 115 -6 6 -11 43 -11 81 0 91 -25 293 -38 309
-6 7 -13 35 -17 62 -4 28 -16 77 -26 109 -10 33 -19 69 -19 82 0 12 -6 24 -14
27 -7 3 -16 24 -20 47 -3 22 -11 49 -16 58 -25 47 -60 135 -80 202 -12 41 -25
80 -29 85 -29 48 -49 192 -37 259 6 31 10 35 22 26 10 -9 14 -9 14 -1 0 6 8
11 18 11 32 0 72 24 72 44 0 11 5 16 14 13 10 -4 16 5 21 30 4 23 13 37 25 40
20 5 35 36 26 52 -3 5 0 11 8 14 7 3 16 24 20 47 4 23 15 58 26 79 38 71 49
107 48 149 -1 24 3 46 9 50 5 4 9 23 7 42 -9 98 42 420 66 420 5 0 21 27 37
60 15 33 33 60 39 60 7 0 15 12 18 26 4 15 9 24 12 22 2 -3 20 10 40 28 19 19
44 34 55 34 11 0 30 5 41 11 15 8 19 8 14 0 -5 -7 2 -11 18 -11 14 0 26 6 26
13 0 8 4 7 10 -3 9 -13 11 -13 20 0 8 13 11 13 19 1 5 -7 14 -11 20 -7 15 9
131 -4 131 -15 0 -5 -5 -8 -11 -6 -6 1 -14 -4 -16 -10 -3 -9 5 -13 22 -13 20
0 26 4 21 15 -4 10 1 15 15 15 11 0 17 -4 14 -10 -4 -6 1 -7 11 -3 13 5 16 3
11 -10 -8 -21 6 -22 23 -2 12 14 18 13 70 -17 8 -4 24 -12 35 -17 38 -16 94
-84 107 -128 7 -23 15 -43 19 -43 11 0 46 -118 53 -175 3 -27 8 -122 11 -210
4 -117 10 -164 20 -174 12 -12 16 -12 30 2 8 9 22 14 29 11 7 -3 42 2 76 11
126 33 331 11 422 -45 18 -11 40 -20 49 -20 9 0 49 -31 90 -70 40 -39 76 -70
79 -70 11 -1 80 -122 80 -141 0 -11 4 -18 9 -15 8 5 34 -45 36 -69 1 -5 4 -17
7 -25 18 -45 28 -87 28 -122 0 -21 4 -46 9 -56 5 -9 14 -54 21 -100 11 -84 32
-122 64 -122 8 0 18 -5 21 -10 10 -16 74 -5 105 19 16 11 33 21 38 21 4 0 22
16 39 35 17 19 36 35 42 35 6 0 11 4 11 9 0 5 14 14 31 21 47 20 125 -1 177
-48 76 -69 116 -102 124 -102 4 0 5 -8 2 -17 -5 -14 -4 -15 4 -4 5 7 29 15 52
17 33 3 51 12 77 39 18 19 33 39 33 46 0 8 5 7 17 -2 15 -12 16 -12 11 8 -3
12 1 31 9 43 8 11 18 34 23 50 7 26 6 30 -10 30 -10 0 -22 5 -25 10 -9 14 -35
-7 -35 -26 0 -8 -4 -14 -9 -14 -5 0 -14 -14 -21 -30 -31 -76 -88 -79 -176 -10
-73 58 -149 102 -157 93 -4 -3 -9 2 -13 11 -3 9 -9 14 -13 12 -4 -3 -25 -7
-47 -10 -55 -6 -75 -16 -101 -47 -42 -49 -112 -89 -157 -89 -54 1 -72 26 -78
108 -2 35 -9 67 -15 70 -6 4 -13 32 -17 62 -14 112 -19 135 -25 140 -10 8 -71
135 -71 148 0 18 -90 126 -112 134 -10 4 -18 11 -18 16 0 5 -12 15 -27 23 -15
8 -39 26 -53 40 -33 34 -85 69 -101 69 -7 0 -20 6 -28 14 -9 8 -33 17 -54 20
-21 3 -47 10 -56 16 -38 20 -193 23 -283 5 -48 -9 -91 -14 -97 -11 -6 4 -8 27
-4 56 3 28 1 76 -6 107 -6 32 -13 81 -15 108 -2 28 -11 65 -21 83 -16 31 -16
34 1 53 9 10 12 19 6 19 -6 0 -13 8 -15 18 -2 9 -3 7 -2 -6 1 -12 -1 -25 -5
-27 -9 -6 -25 73 -16 82 3 3 -1 12 -9 20 -8 8 -15 23 -15 34 0 11 -4 17 -10
14 -5 -3 -10 1 -10 10 0 22 -49 85 -66 85 -8 0 -14 4 -14 8 0 21 -97 57 -225
83 -163 35 -282 42 -310 19 -10 -8 -20 -13 -22 -11 -7 6 -103 -50 -103 -60 0
-5 -7 -9 -15 -9 -8 0 -15 -4 -15 -10 0 -9 -39 -72 -60 -97 -18 -22 -47 -97
-60 -156 -7 -31 -17 -54 -21 -51 -4 2 -10 -10 -13 -28 -22 -131 -36 -232 -32
-236 3 -2 -1 -21 -9 -41 -7 -20 -15 -66 -18 -103 -5 -67 -42 -195 -63 -213 -6
-5 -14 -25 -18 -43 -3 -18 -11 -39 -18 -48 -48 -57 -77 -84 -91 -84 -9 0 -19
-4 -22 -10 -8 -12 -86 -13 -117 -1 -13 5 -42 15 -65 22 -24 7 -43 16 -43 20 0
4 -10 11 -22 15 -13 4 -36 17 -53 29 -16 12 -36 21 -43 19 -7 -1 -8 0 -2 3 17
8 11 24 -7 21 -10 -2 -17 2 -16 9 2 7 -16 33 -40 59 -23 25 -41 52 -39 59 1 7
-4 15 -13 19 -8 3 -15 14 -15 25 0 11 -3 21 -7 23 -13 5 -43 65 -43 86 0 10
-9 30 -20 43 -11 13 -23 29 -28 34 -5 6 -7 16 -4 23 2 7 1 20 -4 30 -4 9 -9
28 -11 42 -2 13 -9 28 -15 31 -7 4 -7 9 0 13 7 4 7 17 0 39 -5 17 -11 43 -13
56 -2 13 -10 28 -17 32 -10 7 -11 11 0 17 13 9 7 42 -8 42 -4 0 -6 21 -5 46 2
27 -2 47 -9 50 -12 4 -14 59 -3 71 4 3 7 25 7 47 0 26 -3 36 -9 28 -7 -11 -9
-11 -14 2 -3 8 1 23 10 32 13 13 14 17 3 24 -10 6 -10 15 -2 39 9 24 8 34 -4
45 -16 16 -19 40 -4 31 6 -3 10 3 10 14 0 10 -6 21 -12 24 -10 3 -10 7 -1 19
7 8 11 17 8 20 -9 8 -14 79 -6 73 16 -9 20 23 5 35 -19 16 -18 30 4 46 9 7 12
14 6 14 -14 0 -16 68 -3 76 6 3 6 11 -1 19 -8 9 -8 15 0 20 5 3 10 15 10 26 0
11 4 18 9 15 11 -7 36 22 27 31 -3 3 -6 1 -6 -5 0 -7 -4 -12 -10 -12 -5 0 -10
11 -10 25 0 14 5 25 10 25 6 0 10 9 10 19 0 11 4 22 9 25 5 4 12 29 16 56 4
28 10 50 14 50 4 0 9 17 10 38 2 57 15 101 34 113 5 4 13 28 18 55 5 26 13 50
18 54 14 8 32 60 25 71 -3 5 2 9 10 9 23 0 37 36 37 92 0 9 8 19 17 23 14 5
14 7 2 15 -12 8 -12 10 4 10 14 0 17 6 13 25 -3 16 0 24 7 22 11 -4 36 36 36
59 0 8 5 14 10 14 9 0 32 41 34 62 1 3 4 10 9 14 4 4 7 15 7 24 0 10 14 34 30
55 18 22 30 50 30 66 0 18 5 28 13 26 6 -1 11 6 11 15 -1 9 4 14 10 12 6 -2
20 10 30 27 17 28 17 32 3 26 -11 -4 -17 -1 -17 8 0 8 9 15 20 15 13 0 17 5
14 14 -3 8 3 19 15 26 24 12 29 35 6 26 -8 -3 -15 -1 -15 4 0 6 7 10 15 10 8
0 15 5 15 11 0 5 4 8 9 4 6 -3 18 12 27 32 10 21 20 40 23 43 17 15 31 54 26
69 -4 13 1 20 14 24 11 3 29 25 41 49 11 25 30 55 41 67 16 17 17 21 4 21 -17
0 -18 2 -9 24 3 9 13 16 22 16 18 0 52 28 52 44 0 7 9 19 20 29 20 17 29 43
11 32 -5 -3 -12 -1 -16 5 -3 5 3 10 15 10 12 0 18 4 15 10 -3 5 0 7 8 4 8 -3
18 6 25 21 7 15 8 25 2 25 -6 0 -10 5 -10 11 0 6 8 8 19 4 14 -4 23 1 32 17 8
15 9 23 1 26 -12 4 -5 32 9 32 4 0 6 -7 3 -15 -8 -19 3 -19 22 -1 16 17 19 40
4 31 -6 -4 -2 9 8 27 14 23 26 32 40 31 12 -2 33 9 46 22 14 14 21 25 16 25
-6 0 -10 7 -10 15 0 8 4 15 9 15 18 0 212 200 205 212 -4 7 -3 8 4 4 7 -4 12
-1 12 8 0 10 6 13 16 9 16 -6 63 40 64 62 0 6 10 15 23 20 12 6 23 20 25 31 2
16 8 20 23 17 19 -5 23 2 20 37 0 11 1 11 5 2 9 -19 34 5 27 25 -4 10 -2 14 4
10 13 -8 43 1 43 13 0 5 35 44 78 88 42 44 111 116 152 160 41 44 87 88 102
99 16 10 28 23 28 28 0 6 12 22 28 36 24 22 94 101 110 125 4 6 40 32 81 59
40 27 75 55 78 62 3 7 10 13 17 13 6 0 25 13 42 28 32 29 132 78 174 85 14 2
42 11 62 21 44 19 55 20 60 5 3 -8 10 -5 22 6 14 15 19 16 26 5 7 -11 11 -10
24 3 9 9 23 14 31 11 9 -4 15 0 15 10 0 19 16 21 23 4 3 -8 6 -6 6 5 1 20 2
20 35 7 22 -8 26 -7 26 7 0 14 2 14 15 -3 14 -19 14 -19 15 3 0 17 9 23 47 31
26 6 51 8 55 6 4 -3 8 0 8 5 0 6 9 11 19 11 11 0 22 4 26 9 3 5 20 12 38 16
39 8 141 42 184 61 17 8 36 14 43 14 7 0 24 6 38 14 15 7 41 19 57 26 17 7 37
16 45 21 8 5 29 15 45 23 17 8 42 25 56 39 15 14 29 23 32 20 3 -3 12 0 19 6
44 38 74 55 99 58 15 1 43 11 61 22 42 25 40 25 129 1z m1539 -1110 c0 -5 -7
-7 -15 -4 -8 4 -12 10 -9 15 6 11 24 2 24 -11z m280 -360 c0 -5 -4 -10 -10
-10 -5 0 -10 5 -10 10 0 6 5 10 10 10 6 0 10 -4 10 -10z m36 -57 c-7 -7 -26 7
-26 19 0 6 6 6 15 -2 9 -7 13 -15 11 -17z m-4744 -385 c-7 -7 -12 -8 -12 -2 0
14 12 26 19 19 2 -3 -1 -11 -7 -17z m-102 -138 c-6 -12 -14 -19 -17 -17 -2 3
1 15 7 27 6 12 14 19 17 17 2 -3 -1 -15 -7 -27z m-20 -34 c0 -3 -4 -8 -10 -11
-5 -3 -10 -1 -10 4 0 6 5 11 10 11 6 0 10 -2 10 -4z m-120 -186 c0 -5 -2 -10
-4 -10 -3 0 -8 5 -11 10 -3 6 -1 10 4 10 6 0 11 -4 11 -10z m4075 -2308 c-9
-9 -25 19 -24 43 0 16 2 15 15 -8 9 -16 13 -32 9 -35z m985 -2912 c0 -5 -5
-10 -11 -10 -5 0 -7 5 -4 10 3 6 8 10 11 10 2 0 4 -4 4 -10z m-1160 -2000 c0
-5 -4 -10 -10 -10 -5 0 -10 5 -10 10 0 6 5 10 10 10 6 0 10 -4 10 -10z"/>
<path d="M13530 11980 c0 -5 4 -10 9 -10 6 0 13 5 16 10 3 6 -1 10 -9 10 -9 0
-16 -4 -16 -10z"/>
<path d="M13570 11953 c0 -12 38 -48 45 -41 3 2 -6 15 -20 28 -14 13 -25 19
-25 13z"/>
<path d="M9357 11263 c-4 -3 -7 -11 -7 -17 0 -6 5 -5 12 2 6 6 9 14 7 17 -3 3
-9 2 -12 -2z"/>
<path d="M14121 11254 c0 -11 3 -14 6 -6 3 7 2 16 -1 19 -3 4 -6 -2 -5 -13z"/>
<path d="M8480 9640 c0 -5 5 -10 10 -10 6 0 10 5 10 10 0 6 -4 10 -10 10 -5 0
-10 -4 -10 -10z"/>
<path d="M9773 8806 c-4 -7 -15 -16 -23 -19 -13 -5 -12 -6 1 -6 9 -1 22 5 29
13 6 8 17 13 25 10 7 -3 16 -1 20 5 4 7 -4 11 -19 11 -14 0 -29 -6 -33 -14z"/>
<path d="M9674 8758 c-4 -5 -3 -12 0 -15 7 -8 36 4 36 15 0 11 -29 11 -36 0z"/>
<path d="M12500 8677 c-25 -5 -61 -13 -81 -19 -41 -12 -129 -82 -129 -104 0
-8 -4 -14 -9 -14 -10 0 -38 -54 -71 -140 -44 -111 -61 -357 -30 -425 7 -16 12
-35 11 -41 -2 -19 146 -164 159 -154 11 8 60 -107 60 -140 0 -88 -56 -114 -99
-47 -30 45 -45 47 -65 5 -17 -34 -18 -32 44 -97 24 -25 70 -42 93 -35 70 22
97 119 72 260 -12 70 -50 119 -137 177 -32 22 -60 49 -64 60 -4 12 -12 25 -18
29 -7 5 -11 53 -11 140 1 106 5 147 22 200 11 36 26 72 32 80 6 7 26 36 44 63
43 67 106 108 190 123 62 12 71 11 110 -7 58 -28 78 -42 101 -71 27 -31 67
-76 111 -121 19 -19 35 -39 35 -43 0 -4 17 -36 38 -71 31 -51 40 -77 45 -131
4 -37 12 -71 19 -75 13 -8 32 -345 23 -420 -6 -51 0 -63 25 -49 11 6 19 26 23
57 9 71 -11 407 -29 488 -27 121 -36 155 -45 155 -4 0 -13 17 -19 39 -5 21
-20 49 -32 63 -13 13 -29 41 -37 62 -14 41 -60 96 -80 96 -6 0 -11 11 -11 24
0 19 -4 23 -20 19 -14 -4 -20 0 -20 11 0 10 -6 13 -15 10 -8 -4 -15 -2 -15 3
0 27 -147 53 -220 40z"/>
<path d="M13175 8371 c-4 -7 -3 -16 2 -20 6 -3 13 -13 16 -21 5 -13 5 -13 6 0
0 8 -4 24 -8 34 -6 15 -10 16 -16 7z"/>
<path d="M12660 7781 c0 -6 -17 -11 -37 -12 -74 -2 -88 -11 -88 -54 0 -34 4
-41 22 -43 12 -2 34 4 48 14 22 14 32 15 64 5 54 -16 107 -69 121 -122 7 -24
15 -51 18 -59 10 -29 12 -90 2 -90 -6 0 -10 -22 -10 -49 0 -61 -14 -103 -41
-119 -17 -11 -26 -10 -57 8 -94 52 -122 62 -153 51 -30 -10 -99 -71 -99 -87 0
-5 -11 -22 -25 -38 -14 -16 -25 -32 -25 -36 0 -16 -43 -50 -65 -50 -32 0 -39
25 -37 138 2 93 2 93 -20 86 -13 -3 -25 -8 -27 -10 -11 -10 -12 -164 -2 -201
14 -52 56 -93 93 -93 37 0 124 85 162 158 8 16 27 37 42 47 26 17 29 17 59 1
17 -10 44 -28 60 -42 26 -23 53 -29 100 -24 30 3 42 16 72 79 23 49 27 71 31
177 4 115 3 123 -22 170 -14 27 -26 55 -26 61 0 7 -3 13 -8 13 -4 0 -13 14
-20 30 -8 17 -20 30 -27 30 -7 0 -16 7 -19 16 -3 8 -10 12 -16 9 -6 -3 -13 1
-16 9 -3 9 -10 14 -14 11 -5 -3 -16 2 -24 11 -9 8 -16 11 -16 5z"/>
<path d="M14731 7644 c0 -11 3 -14 6 -6 3 7 2 16 -1 19 -3 4 -6 -2 -5 -13z"/>
<path d="M9225 7628 c-11 -6 -29 -20 -39 -30 -20 -18 -20 -18 0 -33 10 -8 30
-14 44 -13 53 3 70 -3 104 -33 26 -23 41 -29 57 -24 17 6 19 9 8 17 -11 7 -11
11 -1 15 15 6 16 33 1 33 -7 0 -26 16 -43 35 -35 39 -96 55 -131 33z"/>
<path d="M12140 7290 c-8 -5 -11 -12 -7 -16 4 -4 15 0 24 9 18 18 8 23 -17 7z"/>
<path d="M9685 7035 c-75 -36 -107 -67 -109 -106 -1 -18 -7 -34 -14 -37 -16
-5 -15 -33 3 -56 8 -11 15 -16 15 -12 0 5 6 3 14 -3 11 -10 16 -8 20 7 10 31
86 38 86 8 0 -6 4 -5 9 3 12 19 47 24 74 9 12 -6 35 -12 51 -14 17 -1 35 -9
41 -17 6 -8 29 -20 52 -26 22 -6 46 -18 53 -26 7 -8 19 -15 26 -15 8 0 14 -3
14 -7 0 -5 16 -21 36 -36 26 -22 42 -27 61 -22 21 5 24 10 18 32 -6 24 -32 58
-44 58 -3 0 -31 18 -61 40 -75 54 -116 76 -153 82 -18 3 -36 9 -42 13 -15 13
-120 30 -149 24 -37 -6 -32 2 12 23 47 23 154 22 244 -2 35 -10 69 -17 76 -16
40 3 40 4 31 30 -15 38 -27 49 -62 57 -18 3 -36 9 -42 12 -11 7 -15 8 -125 15
-77 6 -90 4 -135 -18z"/>
<path d="M9675 6790 c-3 -5 1 -10 9 -10 9 0 16 5 16 10 0 6 -4 10 -9 10 -6 0
-13 -4 -16 -10z"/>
<path d="M14360 6370 c0 -5 5 -10 11 -10 5 0 7 5 4 10 -3 6 -8 10 -11 10 -2 0
-4 -4 -4 -10z"/>
<path d="M14361 6201 c2 -53 18 -96 20 -51 l1 25 8 -25 c8 -24 8 -24 9 -3 1
12 -5 28 -12 35 -8 6 -12 22 -9 34 2 12 -1 25 -7 28 -7 5 -10 -9 -10 -43z"/>
<path d="M12420 4350 c-11 -7 -12 -12 -4 -20 8 -8 13 -6 17 9 3 12 4 21 4 21
-1 0 -9 -5 -17 -10z"/>
<path d="M12361 4184 c0 -11 3 -14 6 -6 3 7 2 16 -1 19 -3 4 -6 -2 -5 -13z"/>
<path d="M13110 4100 c0 -5 5 -10 10 -10 6 0 10 5 10 10 0 6 -4 10 -10 10 -5
0 -10 -4 -10 -10z"/>
<path d="M12256 3915 c-9 -26 -7 -32 5 -12 6 10 9 21 6 23 -2 3 -7 -2 -11 -11z"/>
<path d="M12162 3640 c0 -14 2 -19 5 -12 2 6 2 18 0 25 -3 6 -5 1 -5 -13z"/>
<path d="M12607 2843 c-4 -3 -7 -13 -7 -21 0 -18 13 -7 16 13 2 17 1 18 -9 8z"/>
<path d="M12440 2399 c0 -5 5 -7 10 -4 6 3 10 8 10 11 0 2 -4 4 -10 4 -5 0
-10 -5 -10 -11z"/>
<path d="M12340 13136 c0 -2 7 -7 16 -10 8 -3 12 -2 9 4 -6 10 -25 14 -25 6z"/>
<path d="M12458 13053 c7 -3 16 -2 19 1 4 3 -2 6 -13 5 -11 0 -14 -3 -6 -6z"/>
<path d="M10220 12320 c-8 -5 -11 -12 -7 -16 4 -4 13 -2 19 4 15 15 7 24 -12
12z"/>
<path d="M10113 12205 c-3 -9 -3 -18 -1 -21 3 -3 8 4 11 16 6 23 -1 27 -10 5z"/>
<path d="M3440 10170 c-94 -14 -131 -21 -245 -46 -176 -40 -556 -135 -574
-144 -9 -4 -54 -20 -101 -35 -85 -27 -117 -40 -280 -117 -47 -22 -114 -54
-150 -71 -36 -17 -77 -42 -92 -55 -15 -14 -35 -30 -46 -36 -16 -9 -215 -157
-270 -201 -35 -28 -67 -66 -104 -122 -22 -35 -44 -63 -48 -63 -5 0 -12 -10
-16 -22 -11 -37 -25 -51 -37 -36 -6 9 -7 7 -3 -6 7 -22 -20 -70 -34 -61 -6 4
-10 -5 -10 -18 0 -14 -7 -31 -17 -38 -9 -8 -32 -39 -52 -69 -19 -30 -41 -61
-48 -68 -7 -7 -13 -18 -13 -23 0 -9 -15 -29 -60 -78 -41 -45 -67 -77 -71 -89
-6 -15 -68 -90 -112 -133 -20 -21 -37 -41 -37 -46 -1 -12 -37 -53 -47 -53 -4
0 -17 -21 -27 -48 -11 -26 -30 -70 -43 -99 -12 -28 -23 -61 -23 -72 0 -11 -4
-22 -9 -25 -4 -3 -11 -22 -14 -42 -3 -20 -13 -41 -22 -48 -9 -6 -19 -32 -22
-56 -3 -25 -12 -53 -19 -64 -7 -10 -10 -25 -7 -32 3 -8 0 -14 -6 -14 -6 0 -11
-10 -11 -22 0 -13 -7 -35 -15 -51 -8 -15 -17 -55 -21 -90 -4 -34 -13 -74 -20
-89 -8 -15 -14 -41 -14 -58 0 -16 -4 -38 -9 -48 -5 -9 -14 -35 -19 -57 -6 -22
-15 -59 -21 -81 -6 -23 -11 -53 -11 -67 0 -14 -5 -27 -11 -29 -6 -2 -17 -33
-24 -68 -8 -36 -18 -85 -24 -110 -5 -25 -13 -66 -16 -93 -3 -26 -10 -45 -14
-43 -4 3 -13 -41 -20 -97 -7 -56 -16 -120 -21 -142 -18 -81 -23 -162 -11 -170
16 -9 41 13 41 37 0 10 4 17 9 13 5 -3 12 25 16 62 4 38 11 93 16 123 6 30 15
89 21 130 6 41 16 80 23 87 7 6 18 49 25 95 6 46 15 87 18 93 3 5 7 25 9 45 2
19 8 39 14 45 5 5 9 26 9 46 0 21 5 39 10 41 6 2 15 31 21 66 6 34 15 62 19
62 7 0 19 39 26 90 2 14 10 50 18 80 8 30 20 76 27 103 6 26 15 47 20 47 4 0
11 17 14 38 12 78 53 192 68 192 5 0 7 -24 5 -52 -2 -29 1 -86 8 -126 6 -40
10 -87 7 -106 -3 -24 0 -35 11 -39 9 -4 13 -13 10 -21 -3 -8 1 -25 10 -38 9
-12 16 -30 16 -40 0 -10 4 -18 9 -18 5 0 14 -22 21 -50 7 -27 15 -50 19 -50 4
0 14 -19 21 -42 7 -24 15 -45 19 -48 16 -13 42 -75 32 -78 -15 -5 -14 -23 1
-19 6 1 17 -9 25 -23 7 -14 13 -22 13 -18 0 19 54 -46 65 -79 8 -21 19 -37 27
-36 7 2 38 -20 68 -47 51 -46 201 -130 233 -130 7 0 23 -9 35 -21 12 -11 27
-17 32 -14 6 4 24 -3 40 -15 17 -12 30 -19 30 -15 0 3 10 -3 22 -15 12 -11 26
-20 31 -20 5 0 28 -16 51 -36 193 -168 179 -154 211 -208 15 -25 30 -46 35
-46 4 0 13 -13 20 -30 7 -16 16 -30 21 -30 5 0 9 -6 9 -14 0 -7 10 -16 22 -19
12 -4 19 -9 15 -13 -8 -8 20 -59 51 -90 12 -13 22 -28 22 -34 0 -6 13 -25 29
-41 17 -16 33 -38 36 -49 4 -11 10 -20 13 -20 4 0 16 -16 26 -35 11 -19 22
-35 26 -35 5 0 10 -10 14 -22 3 -13 17 -35 31 -50 14 -15 25 -29 25 -32 0 -2
17 -22 37 -43 21 -22 61 -66 88 -98 80 -95 182 -192 245 -235 32 -22 62 -44
65 -50 3 -6 23 -18 43 -28 20 -10 55 -29 77 -42 65 -38 173 -90 188 -90 8 0
20 -7 27 -15 7 -9 19 -14 26 -11 6 2 29 -4 50 -14 22 -10 56 -21 77 -25 20 -3
37 -10 37 -15 0 -5 14 -7 30 -5 17 2 30 -1 30 -7 0 -7 4 -7 13 -1 13 11 15 12
109 17 38 3 80 1 95 -3 30 -9 53 -4 53 10 0 4 -7 6 -16 2 -12 -4 -15 -1 -12
13 2 10 9 18 15 17 6 -1 14 4 17 13 3 8 2 12 -4 9 -19 -12 -10 7 13 26 28 24
34 23 40 -1 3 -13 0 -20 -10 -20 -8 0 -11 -4 -8 -10 3 -5 1 -10 -4 -10 -6 0
-11 -4 -11 -10 0 -5 7 -10 15 -10 8 0 15 6 15 14 0 8 6 16 13 19 7 3 11 21 11
45 -2 36 3 45 32 67 19 14 34 21 34 16 0 -6 5 -11 10 -11 6 0 10 8 10 18 0 11
13 39 30 63 16 24 30 51 30 60 0 9 11 24 25 33 15 10 25 26 25 41 0 13 4 26 9
29 10 6 25 64 22 84 -1 8 2 19 7 25 13 17 30 133 37 252 3 55 8 136 11 180 7
113 -30 480 -52 517 -4 5 0 21 7 35 10 19 10 26 1 32 -8 5 -14 43 -18 102 -3
52 -8 101 -11 109 -8 20 -8 27 -23 235 -7 99 -18 183 -23 186 -11 8 -12 21
-22 199 -3 69 -8 132 -10 140 -3 8 -9 76 -15 150 -6 74 -18 189 -26 255 -21
159 -24 281 -6 277 8 -1 11 2 7 8 -3 6 -11 8 -16 5 -9 -6 -12 56 -10 215 0 50
-4 95 -12 109 -9 19 -9 25 1 28 15 6 17 103 2 103 -5 0 -10 12 -9 28 l1 27 8
-25 c4 -14 9 -18 10 -10 8 58 8 75 -3 82 -8 5 -8 8 -1 8 6 0 11 14 12 30 0 17
-4 30 -9 30 -5 0 -9 8 -9 18 0 13 2 14 9 4 5 -8 6 8 3 38 -3 31 0 60 8 75 8
14 11 45 8 79 -3 30 -1 53 4 50 4 -3 9 12 9 33 2 40 4 61 9 78 1 6 2 13 1 17
-2 17 42 224 51 235 7 9 21 8 60 -4 29 -8 61 -17 72 -19 11 -2 22 -7 25 -11 3
-5 19 -10 36 -12 16 -1 41 -11 55 -20 14 -10 41 -26 60 -36 141 -71 211 -106
231 -115 13 -5 47 -23 74 -40 66 -40 75 -44 180 -75 50 -15 108 -33 130 -41
23 -8 53 -14 67 -14 15 0 30 -4 33 -10 3 -5 14 -10 24 -10 24 0 121 -40 144
-58 9 -8 17 -12 17 -8 0 4 15 -4 33 -18 19 -15 38 -26 43 -26 5 0 35 -18 67
-40 31 -22 60 -40 63 -40 24 0 213 -169 244 -219 8 -13 29 -38 45 -55 17 -18
67 -71 113 -119 45 -48 85 -87 87 -87 3 0 31 -25 62 -55 32 -30 62 -55 68 -55
5 0 28 -16 50 -36 22 -20 50 -43 62 -51 12 -8 25 -23 28 -34 4 -10 10 -19 15
-19 4 0 23 -15 41 -32 19 -18 48 -43 65 -56 17 -12 46 -42 64 -67 18 -24 37
-42 42 -39 4 3 8 1 8 -4 0 -10 49 -76 80 -107 11 -12 20 -24 20 -28 0 -4 9
-17 20 -29 11 -12 20 -28 20 -36 0 -8 9 -25 20 -39 11 -14 20 -34 20 -44 0 -9
5 -19 11 -21 12 -4 31 -71 31 -108 0 -14 4 -30 9 -36 11 -13 29 -176 28 -254
0 -55 0 -55 -17 -30 -9 14 -31 39 -48 55 -30 28 -116 136 -139 174 -5 9 -17
28 -27 43 -10 15 -18 34 -18 42 0 8 -8 23 -19 33 -19 18 -71 140 -71 166 0 8
-6 20 -14 26 -8 7 -17 28 -21 49 -4 20 -10 42 -14 47 -4 6 -16 37 -25 70 -10
33 -21 69 -26 80 -5 11 -11 33 -15 48 -7 35 -30 44 -55 22 -17 -16 -18 -21 -6
-49 7 -17 16 -53 20 -79 4 -26 11 -47 16 -47 5 0 14 -19 21 -42 6 -24 18 -57
25 -75 8 -17 14 -38 14 -47 0 -9 4 -16 8 -16 4 0 16 -24 26 -52 11 -29 25 -60
31 -68 7 -8 25 -46 40 -84 15 -37 36 -77 46 -87 11 -11 19 -23 19 -27 0 -5 9
-19 20 -32 11 -13 20 -29 20 -37 0 -7 4 -13 10 -13 5 0 21 -17 34 -37 13 -21
38 -51 56 -68 62 -58 100 -100 106 -117 3 -10 11 -18 18 -18 6 0 18 -16 25
-35 7 -19 16 -35 20 -35 5 0 11 -9 14 -20 3 -11 12 -20 19 -20 8 0 21 -11 28
-25 7 -13 17 -22 21 -19 4 2 10 0 14 -6 3 -5 -1 -10 -10 -10 -9 0 -13 -5 -10
-10 4 -6 10 -8 15 -5 4 3 19 -12 31 -32 13 -21 33 -48 46 -60 13 -12 23 -29
23 -38 0 -8 3 -15 8 -15 4 0 21 -23 37 -51 17 -28 41 -65 55 -84 14 -18 32
-43 40 -55 23 -35 79 -97 153 -173 37 -38 67 -73 67 -78 0 -4 6 -6 13 -4 10 5
37 -7 142 -62 11 -6 38 -19 60 -29 22 -10 52 -29 67 -42 14 -13 28 -22 30 -21
1 2 19 -9 39 -24 20 -15 41 -27 46 -27 6 0 33 -15 59 -33 55 -37 194 -107 213
-107 15 0 108 -47 115 -59 3 -5 22 -12 42 -16 41 -7 104 -35 104 -46 0 -4 12
-10 27 -14 15 -3 58 -29 96 -57 l68 -51 -5 -121 c-6 -132 1 -212 33 -351 39
-169 83 -265 161 -344 42 -45 53 -51 65 -41 23 19 27 7 11 -36 -7 -22 -17 -60
-21 -84 -3 -25 -11 -72 -16 -105 -6 -33 -14 -112 -19 -175 -9 -128 -19 -190
-30 -190 -4 0 -13 -26 -19 -57 -6 -32 -18 -71 -26 -87 -8 -15 -15 -34 -15 -40
0 -7 -9 -22 -20 -34 -11 -12 -20 -27 -20 -34 0 -15 -69 -122 -116 -180 l-23
-28 -10 53 c-5 28 -12 81 -15 117 -10 115 -18 170 -26 170 -4 0 -13 26 -20 58
-7 31 -19 69 -26 85 -8 15 -12 27 -9 27 3 0 -8 18 -24 40 -15 21 -34 53 -41
70 -7 16 -17 30 -23 30 -6 0 -18 6 -26 14 -9 8 -37 18 -63 24 -38 7 -54 6 -85
-8 -47 -22 -113 -85 -114 -110 -1 -11 -3 -24 -4 -30 -1 -5 -3 -20 -4 -32 0
-12 -4 -18 -8 -14 -10 10 -32 -81 -33 -136 0 -25 -4 -48 -9 -50 -5 -1 -11 -26
-14 -55 -4 -42 -3 -51 9 -46 8 3 14 1 14 -5 0 -5 -7 -12 -15 -16 -19 -7 -19
-36 0 -36 19 0 20 -26 1 -33 -15 -6 -40 38 -31 54 4 5 1 9 -4 9 -6 0 -11 10
-11 22 0 26 -17 83 -36 120 -8 15 -19 60 -24 102 -12 94 -20 126 -31 126 -5 0
-9 19 -9 42 0 32 3 39 12 30 6 -6 11 -25 11 -41 0 -17 7 -33 14 -36 10 -3 13
1 9 15 -3 11 -9 30 -12 43 -3 12 -12 36 -20 53 -35 79 -43 149 -49 454 -7 332
-11 388 -27 408 -9 10 -9 15 0 21 12 7 11 28 -1 48 -4 7 -12 77 -17 155 -18
268 -76 352 -224 319 -62 -14 -129 -75 -151 -137 -8 -21 -18 -38 -24 -37 -5 1
-12 -37 -15 -85 -4 -48 -11 -118 -17 -157 -10 -58 -17 -489 -11 -670 1 -27 1
-57 1 -65 0 -8 2 -33 5 -55 11 -94 27 -342 30 -473 0 -29 6 -56 13 -60 7 -5
14 -51 17 -122 9 -155 15 -200 29 -200 8 0 7 -3 -2 -9 -10 -6 -12 -21 -9 -48
3 -23 0 -52 -8 -69 l-13 -29 6 30 c3 17 6 32 5 35 0 21 -5 26 -23 26 -12 -1
-24 4 -26 11 -3 8 3 11 16 8 27 -5 27 12 1 20 -14 4 -20 15 -20 33 0 28 -40
163 -51 172 -3 3 -9 17 -13 32 -3 16 -10 27 -14 27 -18 -3 -26 2 -14 10 13 8
13 11 -17 126 -4 17 -13 29 -19 28 -7 -2 -12 2 -12 7 0 6 4 10 9 10 9 0 2 42
-19 123 -14 52 -30 71 -30 36 0 -12 -3 -19 -7 -15 -11 10 -12 36 -2 36 12 0
12 47 -1 55 -5 3 -10 21 -10 38 0 18 -5 48 -11 67 -13 40 -26 117 -35 210 -4
36 -11 68 -16 71 -10 7 -18 95 -20 224 -1 126 -1 125 17 125 8 0 15 5 15 10 0
6 -7 10 -15 10 -9 0 -15 9 -15 25 0 16 6 25 15 25 9 0 15 9 15 25 0 31 -17 33
-23 3 -3 -13 -3 22 0 77 2 55 3 105 3 110 0 6 -3 35 -5 65 -7 102 -12 141 -19
147 -3 3 -6 19 -6 34 0 15 -4 31 -10 34 -5 3 -10 15 -10 26 0 11 -7 22 -15 25
-8 4 -15 11 -15 18 0 15 -56 44 -103 52 -84 14 -164 -56 -200 -177 -9 -31 -17
-63 -17 -72 0 -10 -4 -17 -9 -17 -4 0 -11 -27 -14 -59 -3 -33 -9 -66 -13 -73
-20 -30 -32 -212 -28 -413 4 -213 10 -275 24 -275 5 0 8 -15 8 -32 0 -18 2
-67 5 -108 3 -41 6 -129 7 -195 1 -66 5 -124 8 -130 3 -5 8 -30 9 -55 2 -25 8
-74 13 -110 5 -36 12 -90 15 -120 4 -30 9 -62 12 -70 3 -8 9 -30 13 -49 6 -25
6 -31 -3 -22 -6 6 -17 38 -23 71 -7 32 -19 74 -27 92 -9 18 -18 63 -22 101 -4
37 -10 67 -14 67 -7 0 -19 81 -24 158 -1 12 -8 26 -15 31 -12 7 -15 30 -27
226 -2 44 -6 94 -9 110 -2 17 -7 80 -11 140 -9 159 -25 265 -46 305 -11 19
-19 44 -19 56 0 12 -15 45 -34 73 -19 28 -37 60 -41 70 -13 40 -100 42 -154 3
-60 -43 -88 -82 -116 -159 -23 -65 -25 -84 -25 -239 0 -191 11 -297 46 -434
41 -158 42 -163 48 -227 7 -62 7 -63 -18 -63 -15 0 -40 -15 -66 -40 -41 -39
-43 -45 -60 -143 -9 -56 -18 -151 -19 -211 -1 -60 -4 -112 -6 -115 -4 -7 18
-177 35 -283 7 -37 18 -72 26 -79 8 -6 14 -28 14 -49 0 -41 52 -299 69 -342 6
-15 15 -66 21 -114 6 -47 15 -93 20 -102 18 -34 70 -214 70 -244 0 -16 6 -42
14 -56 19 -37 66 -160 66 -173 0 -6 7 -17 15 -25 17 -17 31 -62 22 -71 -13
-13 -213 39 -261 68 -17 10 -37 19 -45 19 -7 0 -26 11 -43 25 -16 14 -38 25
-48 25 -11 0 -23 6 -27 14 -12 21 -63 43 -131 57 -38 8 -62 18 -62 26 0 7 -4
13 -8 13 -4 0 -13 15 -20 33 -7 18 -20 42 -30 53 -10 10 -24 35 -32 54 -7 19
-19 42 -27 51 -7 8 -13 19 -13 22 0 13 -23 37 -202 210 -33 31 -61 57 -63 57
-2 0 -19 15 -38 33 -138 130 -176 160 -316 244 -84 51 -191 128 -191 138 0 6
-10 22 -22 35 -27 29 -35 75 -27 167 4 48 12 79 23 92 9 10 20 36 23 57 3 22
12 48 19 59 8 11 14 32 14 47 0 15 7 31 15 35 19 11 32 118 16 136 -6 8 -22
12 -36 9 -22 -4 -25 -10 -25 -44 0 -47 -19 -128 -30 -128 -5 0 -11 -15 -15
-33 -3 -17 -16 -61 -29 -97 -37 -102 -44 -131 -52 -196 -5 -54 -3 -69 21 -122
15 -33 33 -63 41 -66 8 -3 14 -11 14 -18 1 -12 78 -68 94 -68 6 0 52 -32 121
-85 10 -8 22 -15 26 -15 4 0 16 -15 28 -33 11 -17 21 -26 21 -19 0 6 7 12 15
12 10 0 15 -10 15 -27 0 -19 3 -24 9 -15 6 10 11 9 22 -4 9 -12 10 -15 2 -10
-8 4 -13 2 -13 -7 0 -21 27 -29 35 -10 7 19 20 9 39 -29 7 -12 18 -22 24 -21
6 1 24 -13 41 -32 17 -19 33 -35 37 -35 4 0 21 -13 38 -29 71 -67 112 -101
121 -101 6 0 17 -11 25 -24 17 -27 65 -88 96 -121 23 -25 104 -187 104 -209 0
-7 -12 -22 -27 -31 -86 -55 -161 -176 -182 -292 -6 -31 -17 -66 -24 -77 -8
-12 -17 -45 -21 -75 -4 -30 -10 -59 -13 -64 -3 -6 -7 -35 -8 -66 -2 -31 -6
-104 -10 -162 -6 -84 -4 -108 7 -120 17 -17 21 -64 8 -88 -5 -11 -5 -22 0 -27
14 -14 19 -87 8 -101 -7 -9 -7 -13 1 -13 16 0 5 -169 -16 -241 -9 -32 -22 -59
-28 -59 -6 0 -11 -9 -12 -21 -2 -27 -50 -118 -76 -145 -21 -22 -21 -22 -65 -3
-24 11 -50 19 -58 19 -8 0 -14 4 -14 10 0 14 -49 60 -64 60 -7 0 -21 8 -32 18
-27 24 -171 92 -196 92 -11 0 -37 10 -57 22 -48 30 -188 81 -210 76 -3 -1 -23
6 -44 15 -51 22 -110 38 -177 47 -30 4 -125 22 -210 40 -85 18 -162 33 -170
34 -8 1 -30 10 -49 19 -19 9 -38 17 -43 17 -5 0 -42 16 -82 35 -40 19 -76 35
-80 35 -4 0 -59 25 -121 55 -63 30 -120 55 -125 55 -6 0 -23 8 -38 18 -83 57
-113 74 -118 69 -3 -3 -18 5 -32 19 -15 13 -36 24 -48 24 -12 0 -24 7 -27 15
-4 8 -22 21 -41 29 -20 8 -46 24 -58 36 -13 12 -36 24 -51 27 -16 3 -31 12
-34 19 -3 8 -21 24 -41 36 -21 12 -39 25 -42 28 -7 8 -61 51 -100 80 -19 14
-43 35 -54 48 -11 12 -25 22 -31 22 -6 0 -24 14 -40 30 -16 17 -32 30 -36 30
-4 0 -23 15 -43 33 -19 18 -51 42 -70 52 -20 11 -36 23 -36 27 0 5 -5 8 -11 8
-13 0 -90 59 -102 77 -4 7 -12 13 -17 13 -9 0 -25 12 -93 73 -17 15 -34 27
-39 27 -5 0 -24 16 -44 35 -19 19 -39 35 -43 35 -5 0 -11 4 -13 9 -3 8 -111
128 -223 248 -33 35 -80 87 -105 115 -25 28 -56 64 -70 79 -42 47 -50 58 -50
68 0 5 -11 18 -25 29 -14 11 -25 24 -25 29 0 5 -18 29 -40 52 -22 23 -40 47
-40 54 0 7 -11 25 -25 41 -14 16 -25 35 -25 43 0 7 -4 13 -9 13 -5 0 -14 13
-21 29 -6 16 -17 32 -24 34 -7 3 -23 30 -36 61 -12 31 -26 56 -31 56 -5 0 -9
7 -9 15 0 8 -4 15 -10 15 -5 0 -10 6 -10 14 0 8 -11 27 -24 43 -13 15 -26 38
-30 51 -4 12 -11 22 -16 22 -4 0 -11 16 -14 36 -4 19 -14 38 -22 41 -7 3 -14
12 -14 21 0 13 -35 97 -47 111 -7 9 -43 -33 -43 -51 0 -11 11 -36 25 -56 14
-20 25 -43 25 -50 0 -20 43 -112 52 -112 12 0 67 -123 61 -134 -3 -6 -3 -8 2
-4 8 8 45 -28 45 -44 0 -5 9 -19 21 -31 28 -29 72 -117 59 -117 -5 0 -10 6
-10 14 0 12 -20 26 -36 26 -10 0 -2 -18 21 -42 14 -15 25 -30 25 -34 0 -4 10
-17 22 -28 13 -12 30 -33 38 -46 8 -13 25 -34 38 -46 12 -11 22 -26 22 -33 0
-6 19 -31 43 -55 75 -78 191 -206 200 -221 4 -8 15 -15 22 -15 8 0 15 -4 15
-9 0 -12 110 -121 122 -121 4 0 8 -5 8 -11 0 -7 20 -34 45 -60 25 -26 45 -52
45 -56 0 -5 12 -16 28 -25 15 -9 55 -43 89 -76 35 -33 63 -58 63 -56 0 3 10
-5 23 -16 12 -12 22 -29 22 -38 0 -10 7 -16 17 -14 9 1 31 -11 49 -28 19 -16
41 -30 51 -30 10 0 18 -5 18 -10 0 -6 11 -16 25 -22 14 -6 24 -17 21 -24 -3
-7 3 -15 12 -18 10 -3 25 -18 34 -33 14 -23 18 -24 18 -9 0 18 1 18 19 2 11
-10 17 -24 14 -32 -3 -8 -1 -14 5 -14 6 0 12 5 14 10 2 6 12 4 25 -5 13 -9 20
-22 16 -30 -4 -11 -1 -13 13 -8 13 5 16 3 11 -10 -4 -11 -1 -17 9 -17 8 0 17
-7 20 -15 5 -12 10 -13 20 -4 11 9 15 7 21 -7 9 -24 44 -53 64 -54 8 0 28 -16
43 -35 16 -19 32 -32 38 -29 5 3 23 -8 40 -25 17 -17 36 -31 44 -31 7 0 18 -8
23 -17 7 -12 11 -13 11 -5 0 10 4 9 16 -3 9 -9 41 -31 70 -51 30 -19 57 -41
60 -49 4 -8 12 -15 18 -15 7 0 33 -11 57 -24 24 -13 69 -37 99 -52 30 -15 69
-38 86 -51 17 -13 39 -23 48 -23 10 0 24 -7 33 -15 8 -8 19 -13 24 -10 10 7
70 -26 64 -35 -2 -3 8 -6 23 -5 15 0 33 -8 40 -18 11 -14 17 -15 28 -6 10 8
14 8 14 0 0 -6 8 -11 18 -12 10 0 12 -3 5 -6 -23 -9 -14 -24 11 -17 18 4 25 1
29 -13 4 -17 5 -17 6 0 0 10 6 15 11 12 6 -4 7 -11 4 -17 -4 -6 1 -8 16 -3 15
5 20 4 16 -3 -4 -7 10 -15 36 -22 24 -6 51 -15 62 -21 10 -6 36 -12 57 -13 22
-2 47 -10 57 -19 10 -9 40 -17 70 -19 28 -2 52 -6 52 -10 0 -4 9 -5 20 -3 11
2 20 1 20 -3 0 -4 10 -8 23 -9 57 -7 92 -12 95 -13 1 -2 6 -3 11 -4 5 0 13 -4
17 -9 4 -4 22 -7 41 -7 26 0 33 -4 33 -20 0 -13 6 -20 18 -19 10 0 12 3 5 6
-7 2 -13 11 -13 19 0 9 4 13 9 10 5 -4 11 -1 13 5 2 6 14 1 28 -11 20 -18 22
-23 10 -30 -25 -16 -1 -11 32 6 30 16 31 15 25 -5 -6 -23 3 -27 21 -9 9 9 12
8 12 -8 0 -16 2 -16 10 -4 8 13 11 12 24 -5 9 -11 16 -15 16 -10 1 6 5 1 10
-10 7 -17 9 -17 9 -2 1 10 9 17 21 17 15 0 20 -7 20 -25 0 -26 -1 -25 73 -29
10 -1 22 -8 26 -15 5 -7 14 -10 20 -7 16 10 121 -45 121 -64 0 -12 2 -12 9 -1
5 8 16 11 30 6 12 -3 19 -10 16 -15 -3 -4 4 -6 14 -3 13 3 29 -4 43 -19 13
-12 33 -22 43 -21 11 2 14 0 8 -3 -7 -3 -13 -9 -13 -14 0 -12 39 -19 43 -7 2
6 20 -2 41 -18 26 -20 36 -34 33 -47 -3 -10 -1 -18 4 -18 5 0 9 5 9 10 0 17
22 11 64 -17 62 -43 89 -71 80 -84 -4 -8 -3 -9 4 -5 12 7 66 -3 58 -11 -3 -3
2 -12 10 -21 12 -12 18 -12 24 -3 5 9 14 -3 26 -32 10 -25 22 -43 26 -41 5 3
8 -2 8 -10 0 -9 7 -16 15 -16 8 0 14 -3 13 -7 -3 -13 36 -87 52 -100 12 -9 15
-37 15 -138 0 -109 -2 -128 -17 -139 -22 -16 -25 -76 -4 -76 8 0 17 -6 19 -12
3 -8 6 -6 6 4 1 9 7 21 14 25 6 4 21 34 31 65 26 78 23 247 -4 283 -4 6 -11
25 -15 42 -3 18 -10 33 -15 33 -4 0 -10 12 -13 28 -7 31 -22 53 -87 122 -25
26 -49 53 -55 59 -25 27 -81 72 -97 77 -23 7 -23 17 3 40 24 22 59 86 59 109
0 9 9 28 19 43 21 29 55 247 46 299 -17 106 -29 547 -16 618 20 116 34 175 43
175 4 0 8 10 8 23 0 13 4 27 9 33 5 5 14 26 21 47 6 20 15 37 20 37 5 0 12 9
15 20 13 40 116 132 131 117 4 -3 15 3 27 14 25 23 80 25 121 4 15 -8 35 -15
42 -15 8 0 17 -7 20 -15 4 -8 10 -12 15 -9 9 5 44 -11 66 -30 31 -27 43 -36
49 -36 4 0 23 -10 42 -22 57 -35 160 -68 257 -81 80 -11 90 -14 93 -33 2 -12
12 -30 23 -40 10 -9 19 -24 19 -33 0 -14 -2 -14 -10 -1 -5 8 -12 11 -16 7 -5
-4 2 -18 14 -30 34 -33 62 -69 62 -79 0 -4 7 -8 15 -8 13 0 35 -55 35 -91 0
-9 7 -19 15 -23 8 -3 15 -16 15 -30 0 -13 6 -26 13 -29 13 -5 49 -71 78 -142
14 -35 13 -32 23 -68 5 -15 15 -31 23 -35 8 -5 15 -15 17 -23 1 -8 8 -24 14
-36 10 -19 10 -23 0 -23 -8 0 -9 -3 -3 -8 11 -7 31 -37 42 -62 4 -8 12 -19 19
-25 6 -5 22 -40 35 -78 13 -37 27 -67 31 -67 5 0 8 -11 8 -24 0 -13 4 -26 10
-28 5 -2 15 -26 22 -54 7 -28 18 -49 23 -47 9 2 65 -130 65 -155 0 -6 5 -12
10 -14 6 -2 16 -30 22 -63 7 -33 16 -62 20 -65 4 -3 9 -22 12 -42 2 -20 11
-47 19 -60 8 -12 22 -57 31 -100 8 -42 24 -104 36 -138 11 -33 18 -65 15 -70
-3 -5 0 -20 6 -32 7 -13 14 -39 16 -58 2 -19 8 -48 13 -65 5 -16 10 -48 12
-70 1 -22 5 -42 9 -45 4 -3 10 -17 13 -30 20 -99 27 -145 33 -220 7 -76 10
-85 29 -88 31 -4 36 19 23 122 -7 50 -12 100 -11 110 1 11 -5 24 -13 30 -20
16 -34 79 -28 126 4 27 2 40 -6 40 -7 0 -9 5 -6 10 4 6 2 17 -4 24 -7 8 -11
18 -10 22 6 34 -4 95 -17 108 -12 12 -12 16 -2 16 11 0 11 2 0 9 -12 7 -34
110 -33 155 0 10 -6 31 -14 46 -8 15 -16 38 -19 51 -3 13 -16 56 -30 96 -14
39 -28 87 -32 107 -3 20 -10 39 -15 41 -4 3 -11 26 -15 50 -3 25 -10 45 -14
45 -4 0 -10 18 -14 39 -3 22 -12 46 -19 53 -6 7 -17 24 -23 38 -35 78 -44 102
-44 115 0 8 -7 15 -15 15 -8 0 -15 6 -15 13 0 7 -9 30 -20 52 -11 22 -20 43
-20 48 0 5 -8 21 -19 35 -10 15 -21 44 -25 64 -4 21 -17 50 -29 65 -26 31 -67
126 -67 154 0 9 -6 24 -14 32 -14 13 -56 99 -56 114 0 4 -9 19 -20 33 -11 14
-20 33 -20 43 0 9 -5 17 -11 17 -5 0 -7 5 -3 11 3 6 -3 24 -15 40 -11 15 -21
33 -21 38 0 5 -6 16 -13 23 -17 18 -37 65 -37 89 0 11 -7 22 -15 25 -8 4 -15
16 -15 28 -1 11 -7 32 -16 46 l-15 25 6 -25 c4 -16 -2 -11 -15 15 -11 22 -25
44 -30 49 -6 6 -10 20 -10 32 0 12 -7 27 -15 34 -8 7 -15 19 -15 26 0 8 -4 14
-10 14 -5 0 -10 8 -10 19 0 10 -7 24 -15 31 -8 7 -15 28 -15 46 0 19 -4 34
-10 34 -5 0 -10 15 -10 33 l1 32 16 -30 c9 -16 18 -25 20 -18 3 7 -5 22 -16
35 -12 12 -21 25 -21 30 0 4 -5 8 -11 8 -7 0 -9 -10 -5 -26 4 -15 3 -23 -3
-20 -11 7 -20 86 -9 86 9 0 -1 61 -13 74 -4 5 -5 15 -2 22 3 8 -2 17 -11 20
-9 3 -16 11 -16 18 0 6 -9 29 -20 51 -11 22 -20 50 -20 63 0 36 -45 223 -61
255 -5 10 -14 51 -19 91 -5 40 -18 106 -30 147 -11 40 -20 88 -20 106 0 17 -4
34 -9 37 -5 3 -11 15 -14 26 -3 11 -1 18 4 14 5 -3 9 1 9 10 0 8 -4 16 -9 18
-12 4 -22 161 -20 298 0 58 1 113 1 123 -1 9 4 17 9 17 6 0 7 9 3 23 -10 31
-4 112 10 135 4 7 5 16 2 19 -3 4 1 15 11 25 34 38 96 12 106 -44 15 -87 48
-222 56 -232 5 -6 12 -31 16 -56 4 -25 9 -52 11 -60 1 -8 10 -46 18 -85 9 -38
16 -82 16 -97 0 -16 4 -28 9 -28 5 0 14 -39 21 -87 7 -49 19 -113 26 -144 8
-31 14 -70 14 -85 0 -16 7 -48 15 -71 8 -23 20 -75 26 -115 6 -40 17 -86 24
-103 7 -16 18 -57 25 -90 23 -116 41 -167 57 -161 8 3 19 6 24 6 21 0 -5 149
-28 163 -16 10 -17 38 -1 35 7 -2 14 7 16 19 4 28 -25 32 -30 6 -2 -10 -5 2
-5 27 -2 45 -5 62 -16 90 -3 8 -11 49 -17 90 -6 41 -16 80 -23 85 -7 6 -18 46
-24 90 -13 92 -21 132 -33 160 -5 11 -11 44 -14 74 -3 29 -10 58 -15 65 -5 6
-10 27 -11 46 -1 19 -2 56 -3 82 -1 27 -5 48 -9 48 -5 0 -8 9 -8 20 0 11 -4
20 -9 20 -5 0 -14 37 -20 83 -7 45 -16 91 -21 102 -5 11 -14 46 -20 77 -6 32
-16 58 -22 58 -6 0 -8 11 -6 25 3 14 2 27 -1 30 -4 2 -8 30 -9 63 -1 32 -7 73
-12 92 -5 18 -7 37 -4 42 3 5 0 15 -6 23 -6 8 -9 19 -6 24 4 5 2 12 -4 16 -6
4 -8 11 -4 16 3 5 -2 21 -11 35 -9 14 -14 28 -11 31 3 4 2 11 -3 17 -9 11 -29
128 -35 211 -2 22 -7 58 -11 80 -5 22 -8 92 -8 155 1 155 24 238 81 292 50 46
84 49 121 11 25 -27 71 -124 71 -151 0 -7 4 -20 9 -30 25 -51 33 -101 38 -237
2 -82 7 -157 10 -165 10 -27 15 -58 43 -310 16 -148 35 -257 47 -272 11 -13
16 -36 29 -130 4 -27 10 -48 14 -48 5 0 11 -19 15 -42 4 -24 10 -45 14 -48 3
-3 14 -30 24 -60 26 -78 37 -98 57 -103 13 -3 22 -22 30 -63 7 -32 16 -65 21
-73 5 -9 23 -59 40 -111 17 -52 36 -99 43 -105 7 -5 18 -31 26 -58 7 -26 17
-50 21 -53 5 -3 9 -12 9 -20 0 -33 69 -69 84 -45 10 15 -6 71 -19 71 -16 0
-28 48 -28 105 1 37 0 37 -6 10 -6 -28 -8 -29 -18 -10 -5 11 -14 34 -18 50 -5
17 -9 35 -11 40 -2 6 -8 30 -15 55 -6 25 -17 50 -24 55 -11 9 -34 66 -36 90 0
6 -6 24 -13 40 -7 17 -16 48 -20 70 -4 22 -13 43 -19 47 -9 6 -8 11 3 19 11 8
12 12 3 16 -7 2 -13 9 -13 14 0 6 5 7 10 4 6 -3 10 -1 10 4 0 6 -4 11 -9 11
-9 0 -21 55 -23 110 -1 14 -5 30 -9 36 -5 5 -11 37 -15 70 -3 32 -8 62 -10 66
-2 3 -6 33 -8 65 -3 32 -9 69 -14 83 -5 14 -10 81 -11 150 -2 192 -11 392 -18
425 -4 17 -6 39 -4 51 1 11 -3 33 -9 48 -7 20 -7 32 0 41 8 9 6 14 -5 19 -13
5 -15 28 -14 141 0 104 4 135 14 135 16 0 27 38 12 43 -8 2 -8 14 0 43 7 21
19 74 27 118 8 43 23 87 31 96 9 10 16 27 15 37 -4 28 23 83 40 84 10 0 11 2
3 6 -20 7 41 53 71 53 17 0 41 -15 70 -42 39 -38 45 -50 51 -100 4 -31 13 -59
20 -62 17 -6 14 -74 -3 -85 -11 -7 -11 -9 2 -14 13 -5 15 -30 13 -173 -2 -122
-6 -169 -15 -172 -14 -4 -16 -48 -3 -56 16 -10 19 -57 4 -63 -8 -3 -10 -8 -5
-12 11 -6 18 -55 27 -184 3 -43 13 -105 21 -139 9 -33 14 -69 11 -79 -3 -11
-1 -19 4 -19 5 0 9 -13 9 -29 0 -16 4 -31 9 -33 5 -1 12 -21 15 -43 14 -117
20 -151 27 -156 5 -3 11 -27 14 -54 2 -28 9 -51 15 -53 14 -5 13 -42 -2 -42
-9 -1 -8 -4 2 -13 19 -15 43 -83 35 -97 -3 -5 -2 -10 4 -10 5 0 12 -13 16 -30
4 -16 11 -32 16 -35 5 -4 9 -14 9 -23 0 -9 6 -28 13 -42 8 -14 19 -48 26 -75
7 -27 16 -52 20 -55 12 -9 61 -170 61 -201 0 -17 5 -29 13 -29 11 0 29 -71 40
-155 1 -11 6 -23 10 -26 5 -3 10 -21 12 -40 7 -58 13 -97 25 -151 11 -49 14
-53 40 -53 16 -1 27 2 24 6 -2 4 1 9 8 11 9 3 9 12 0 38 -7 18 -12 56 -12 85
0 29 -7 66 -15 83 -15 29 -19 84 -41 552 -3 74 -12 187 -20 250 -8 63 -14 134
-14 158 0 23 -4 50 -9 60 -16 29 -32 306 -32 536 1 160 -2 223 -12 234 -9 12
-9 16 1 19 8 3 12 28 12 76 0 40 4 89 9 109 6 24 5 40 -3 48 -8 8 -8 13 0 18
6 4 12 34 13 67 1 33 6 64 11 69 6 6 10 19 10 31 0 12 5 26 12 33 7 7 9 12 5
12 -4 0 3 18 14 40 34 66 144 104 179 63 25 -29 52 -92 67 -156 18 -79 20 -97
28 -257 4 -74 9 -151 11 -170 8 -67 12 -136 18 -365 7 -256 15 -368 26 -375
13 -9 22 -50 11 -50 -6 0 -11 -5 -11 -11 0 -5 4 -8 9 -5 9 6 25 -79 20 -100
-4 -14 29 -125 47 -157 16 -29 22 -51 31 -124 3 -24 9 -43 14 -43 5 0 9 -7 9
-15 0 -8 4 -15 8 -15 4 0 9 -8 10 -17 4 -40 30 -203 36 -220 3 -10 6 -38 8
-62 1 -24 8 -45 15 -48 17 -7 17 -30 1 -36 -10 -4 -10 -6 0 -6 6 -1 12 -12 12
-26 0 -13 5 -47 11 -75 10 -45 13 -50 32 -44 35 10 42 10 40 -2 -1 -7 9 -45
22 -85 14 -41 25 -81 25 -90 0 -9 6 -22 14 -28 8 -7 20 -35 26 -64 7 -29 18
-59 25 -67 7 -8 19 -34 26 -57 7 -24 15 -43 19 -43 4 0 11 -29 15 -65 4 -37
12 -68 20 -72 15 -9 35 -180 35 -294 0 -71 7 -84 39 -74 13 4 22 19 26 44 8
50 -11 223 -35 314 -11 40 -27 106 -36 147 -9 41 -22 79 -29 85 -7 5 -25 53
-40 105 -14 52 -33 109 -40 125 -8 17 -17 42 -21 57 -3 16 -12 28 -20 28 -17
0 -19 17 -2 22 8 3 6 12 -5 29 -26 39 -57 146 -69 234 -5 44 -14 87 -18 96
-12 23 -20 291 -11 359 6 43 9 51 16 35 20 -47 68 -115 80 -115 7 0 15 -4 17
-10 3 -9 56 -15 104 -12 29 3 81 58 114 122 16 30 29 47 30 38 0 -10 5 -18 10
-18 6 0 8 -10 4 -24 -3 -13 0 -35 7 -47 11 -22 14 -40 23 -164 13 -187 20
-255 26 -255 4 0 11 -30 15 -67 4 -36 13 -89 21 -117 8 -28 19 -77 24 -110 6
-32 17 -64 25 -72 7 -8 18 -36 24 -63 6 -27 21 -74 35 -104 13 -31 22 -58 19
-60 -2 -3 0 -15 6 -26 7 -11 14 -40 17 -63 7 -59 12 -70 25 -62 8 4 9 -1 3
-17 -4 -13 -6 -31 -5 -39 5 -26 3 -124 -3 -165 -3 -22 -10 -84 -16 -137 -5
-54 -13 -106 -18 -115 -12 -22 -27 -103 -23 -122 1 -8 -2 -17 -8 -20 -6 -4
-17 -63 -25 -131 -9 -69 -21 -156 -27 -195 -13 -75 -20 -364 -10 -380 3 -5 6
-30 7 -55 1 -25 4 -76 7 -115 3 -38 8 -120 11 -181 3 -62 8 -118 11 -125 2 -8
6 -32 9 -54 3 -22 14 -80 25 -130 12 -49 28 -126 35 -170 16 -88 25 -117 35
-111 3 2 7 -15 8 -38 2 -22 7 -42 13 -44 5 -2 7 -15 4 -29 -5 -20 -4 -24 6
-18 9 6 11 4 5 -5 -9 -15 15 -121 26 -114 4 2 11 -1 15 -7 4 -8 3 -9 -4 -5 -9
5 -12 -7 -12 -39 0 -39 3 -46 16 -41 11 4 15 0 13 -17 -1 -12 1 -50 5 -84 4
-35 7 -66 6 -69 -1 -4 4 -10 12 -15 7 -5 13 -19 14 -31 1 -26 9 -49 32 -95 19
-38 20 -38 43 -17 16 15 16 17 -2 52 -25 50 -67 231 -74 316 -3 39 -8 72 -13
75 -4 3 -14 38 -21 76 -8 39 -18 73 -24 76 -5 4 -16 38 -23 75 -44 229 -45
232 -64 279 -5 11 -14 74 -20 140 -6 66 -13 138 -15 160 -6 51 -26 321 -30
400 -4 63 19 371 35 465 5 30 12 89 15 130 4 41 15 93 25 115 9 22 21 69 25
105 8 84 12 97 29 97 10 0 12 -7 5 -30 -5 -17 -7 -47 -4 -66 2 -20 7 -85 9
-145 3 -60 10 -112 15 -116 6 -3 16 -93 22 -200 8 -144 15 -197 26 -208 8 -8
12 -20 9 -27 -2 -7 1 -21 8 -31 10 -12 11 -27 5 -48 -5 -17 -9 -42 -8 -56 l1
-25 7 24 c4 14 13 27 20 29 8 3 11 0 7 -6 -3 -6 -2 -22 4 -36 12 -31 4 -57
-16 -49 -10 3 -12 0 -8 -10 3 -9 12 -18 20 -21 8 -3 14 -14 14 -24 0 -10 8
-27 19 -36 17 -16 19 -16 24 1 4 10 12 26 19 35 10 14 8 32 -14 100 -34 108
-43 146 -67 303 -25 157 -30 198 -38 295 -3 41 -9 80 -13 85 -6 8 -26 688 -22
740 1 6 4 161 7 345 3 184 10 372 16 416 7 45 10 93 7 107 -3 17 -1 24 7 20 7
-2 15 -25 18 -51 3 -25 10 -48 16 -50 6 -2 11 -12 11 -23 0 -10 4 -19 10 -19
5 0 12 -15 16 -34 3 -19 12 -37 20 -40 7 -3 11 -12 8 -21 -4 -8 -1 -15 6 -15
7 0 10 -8 7 -20 -3 -11 -1 -20 5 -20 6 0 7 -11 4 -25 -4 -14 -2 -25 4 -25 5 0
10 -7 10 -15 0 -8 6 -15 13 -15 9 0 8 -3 -2 -9 -11 -7 -11 -10 1 -17 13 -8 26
-48 30 -94 0 -8 4 -19 8 -25 5 -5 11 -48 15 -95 4 -47 14 -101 22 -120 18 -41
43 -170 43 -221 0 -19 4 -39 9 -45 12 -12 38 -160 46 -259 4 -44 9 -96 11
-115 2 -19 6 -188 8 -375 4 -337 -4 -502 -34 -640 -6 -27 -14 -63 -17 -80 -3
-16 -9 -34 -13 -40 -15 -20 -31 -175 -17 -175 4 0 7 -6 7 -14 0 -8 6 -16 14
-19 17 -7 37 -71 29 -95 -3 -13 -2 -14 4 -4 7 9 17 -1 36 -38 15 -29 27 -59
27 -68 1 -10 7 -34 14 -54 10 -27 10 -40 2 -49 -8 -9 -8 -10 1 -5 13 7 18 -7
28 -71 4 -24 11 -43 16 -43 14 0 11 -28 -3 -33 -8 -4 -7 -6 3 -6 18 -1 29 -40
29 -100 0 -20 5 -42 12 -49 7 -7 9 -12 5 -12 -4 0 -2 -10 5 -23 6 -12 13 -38
14 -57 1 -19 9 -62 17 -95 9 -33 21 -99 28 -148 7 -49 17 -87 23 -87 24 1 45
27 40 51 -2 13 -9 56 -14 94 -20 149 -23 164 -31 159 -5 -3 -9 11 -9 30 0 20
5 36 10 36 6 0 10 7 10 15 0 8 -4 15 -8 15 -4 0 -14 21 -21 47 -7 27 -19 66
-26 88 -19 56 -51 170 -65 235 -7 30 -16 57 -19 60 -4 3 -14 30 -23 60 -25 84
-44 131 -56 139 -6 4 -18 25 -26 47 -11 32 -12 59 -4 139 6 55 14 107 19 115
8 12 9 10 7 -6 -2 -11 1 -23 7 -25 9 -4 16 33 17 88 0 12 6 24 14 27 17 7 19
27 2 24 -7 -2 -13 4 -13 12 0 8 6 14 13 12 6 -1 12 7 12 18 0 11 -4 20 -10 20
-5 0 -10 5 -10 11 0 5 4 8 9 5 5 -3 11 1 15 9 6 18 -10 30 -18 13 -3 -7 -3 3
1 22 3 19 7 42 8 50 0 9 4 21 8 27 4 6 3 15 -3 18 -8 5 -7 11 1 21 7 9 8 19 3
26 -5 7 -7 36 -3 63 3 28 7 46 7 42 1 -4 11 -3 22 3 12 6 17 16 14 22 -4 7 -7
31 -5 54 1 30 -3 43 -14 47 -20 8 -19 34 3 46 9 6 12 11 5 11 -6 0 -15 10 -18
21 -6 17 -9 19 -16 8 -5 -8 -9 -9 -9 -4 0 6 4 16 9 23 4 7 5 33 1 58 -4 24 -3
47 2 50 4 3 3 14 -3 26 -8 15 -8 19 0 14 7 -5 11 3 11 19 0 14 -4 24 -8 21 -5
-3 -7 19 -6 47 1 29 -1 57 -4 62 -4 6 -7 26 -7 45 -4 100 -18 217 -30 230 -6
8 -17 63 -23 121 -11 105 -17 135 -48 254 -8 33 -23 114 -33 180 -9 66 -23
134 -30 150 -7 17 -17 51 -22 78 -13 68 -50 187 -58 187 -4 0 -13 23 -20 50
-7 28 -23 69 -34 91 -12 23 -28 53 -36 68 -7 14 -22 36 -33 47 -15 17 -18 31
-14 70 3 27 8 84 11 128 3 43 12 110 21 148 9 38 14 82 11 96 -3 15 1 39 9 54
9 17 10 28 4 28 -5 0 -10 7 -10 15 0 8 4 15 9 15 14 0 21 26 27 111 3 52 2 79
-5 79 -6 0 -11 5 -11 11 0 5 5 7 10 4 6 -3 10 0 11 7 2 26 7 54 23 111 9 32
16 69 16 82 0 14 4 25 9 25 5 0 12 13 16 29 6 30 17 169 16 209 -1 13 3 40 8
62 7 30 6 37 -4 34 -9 -4 -13 4 -12 23 2 59 -3 104 -12 98 -5 -3 -12 -1 -16 5
-3 5 1 10 10 10 9 0 15 6 12 13 -2 6 -11 11 -20 11 -9 -1 -13 4 -10 12 3 8 0
14 -6 14 -6 0 -11 5 -11 11 0 5 4 7 10 4 6 -3 7 1 4 10 -4 9 -11 14 -17 12
-12 -4 -57 44 -57 60 0 23 -80 103 -194 194 -38 31 -55 39 -77 35 -24 -3 -29
-1 -29 16 0 15 -5 19 -19 15 -11 -2 -31 5 -47 19 -16 13 -35 23 -42 24 -7 0
-15 7 -18 15 -4 8 -10 12 -15 10 -5 -3 -16 3 -26 14 -9 11 -21 17 -26 14 -4
-3 -19 5 -31 16 -13 12 -27 21 -32 20 -20 -5 -64 14 -64 28 0 8 -4 12 -9 9
-13 -8 -103 24 -127 45 -11 11 -30 19 -42 19 -11 0 -23 4 -26 9 -3 5 -23 12
-43 16 -21 3 -49 16 -61 28 -13 12 -33 22 -45 22 -12 0 -21 6 -20 13 2 6 -1
12 -6 12 -13 0 -145 90 -149 101 -2 5 -8 7 -13 4 -5 -3 -34 9 -66 26 -32 18
-74 41 -93 51 -86 45 -170 117 -170 145 0 8 -8 17 -17 20 -22 9 -62 54 -63 71
0 7 -6 15 -14 18 -8 3 -26 29 -41 58 -15 29 -40 68 -56 87 -16 19 -29 39 -29
46 0 6 -7 18 -15 26 -8 8 -24 34 -36 57 -12 23 -28 44 -35 47 -8 3 -14 9 -14
14 0 10 -19 35 -67 87 -18 19 -30 39 -28 43 3 4 -2 9 -10 13 -8 3 -15 15 -15
26 0 11 -4 20 -10 20 -15 0 -12 114 3 129 10 11 8 12 -10 6 -20 -6 -23 -3 -23
24 0 17 5 31 10 31 6 0 10 -4 10 -10 0 -5 5 -10 10 -10 6 0 6 8 -1 23 -26 48
-27 56 -23 88 4 25 2 30 -5 19 -15 -21 -13 -4 2 20 10 17 9 22 -3 30 -9 6 -15
26 -16 52 -2 70 -4 79 -13 73 -18 -10 -26 14 -33 102 -1 7 -5 10 -10 7 -4 -3
-8 2 -8 10 0 9 -4 16 -10 16 -5 0 -10 9 -10 20 0 11 -7 23 -15 26 -8 3 -17 15
-21 26 -3 11 -13 28 -22 37 -10 9 -26 30 -37 46 -11 16 -30 39 -42 52 -13 13
-23 30 -23 38 0 8 -6 15 -13 15 -8 0 -20 11 -27 25 -7 14 -17 25 -21 25 -14 0
-134 128 -152 162 -14 26 -16 28 -12 8 l6 -25 -17 23 c-9 12 -22 22 -30 22 -7
0 -19 8 -26 18 -7 10 -26 27 -43 38 -16 10 -56 46 -88 79 -33 33 -63 59 -67
58 -5 -2 -21 12 -36 30 -15 17 -31 31 -35 30 -4 -2 -15 10 -25 25 -9 16 -26
32 -38 38 -11 5 -28 24 -37 42 -9 18 -29 44 -43 57 -14 13 -26 29 -26 34 0 5
-9 16 -20 24 -10 7 -33 31 -51 53 -17 21 -35 39 -40 39 -5 0 -15 11 -22 24 -7
13 -27 31 -44 40 -18 9 -33 21 -33 26 0 13 -35 35 -64 41 -11 2 -22 8 -24 13
-2 6 -9 8 -15 6 -15 -5 -51 24 -60 49 -6 16 -10 16 -24 5 -14 -12 -16 -12 -9
0 11 17 -12 33 -36 25 -12 -4 -21 3 -30 21 -6 14 -23 28 -37 31 -61 14 -151
47 -151 57 0 5 -11 7 -25 5 -14 -3 -29 0 -35 7 -6 7 -21 10 -35 7 -14 -2 -25
0 -25 7 0 6 -26 18 -57 27 -75 20 -143 43 -165 55 -10 5 -28 9 -40 9 -13 0
-28 8 -35 19 -6 10 -24 22 -40 25 -15 4 -44 17 -63 30 -28 19 -97 48 -120 51
-3 0 -18 9 -34 20 -16 11 -35 20 -43 21 -8 2 -22 9 -31 16 -52 41 -179 88
-327 120 -99 21 -369 31 -465 18z m341 -77 c67 -8 73 -13 57 -54 -8 -19 -15
-52 -17 -74 -2 -22 -9 -58 -17 -80 -7 -22 -14 -61 -14 -87 0 -27 -4 -48 -9
-48 -5 0 -12 -37 -15 -82 -3 -46 -10 -137 -16 -203 -11 -126 -4 -706 9 -715 4
-3 7 -14 8 -25 0 -11 1 -67 3 -125 1 -58 6 -109 10 -115 4 -5 11 -66 14 -135
4 -69 10 -146 15 -172 4 -27 4 -48 0 -48 -4 0 -3 -14 3 -30 5 -17 8 -59 5 -95
-3 -44 0 -73 10 -92 9 -18 10 -29 3 -33 -7 -4 -6 -16 4 -36 7 -16 13 -50 12
-77 0 -26 2 -47 5 -47 12 0 16 -49 5 -60 -8 -8 -7 -13 2 -19 7 -4 10 -14 7
-22 -3 -9 1 -41 9 -73 11 -40 12 -64 6 -76 -6 -12 -6 -20 0 -22 5 -2 12 -43
15 -93 8 -128 15 -179 28 -187 8 -5 6 -8 -5 -8 -22 0 -23 -14 -4 -32 14 -15
22 -67 32 -233 3 -55 10 -105 16 -112 11 -14 4 -372 -10 -518 -14 -130 -21
-165 -32 -165 -5 0 -14 -17 -19 -37 -36 -131 -268 -392 -315 -354 -6 5 -36 5
-66 0 -127 -18 -199 -8 -325 46 -79 34 -109 45 -122 45 -8 0 -37 15 -66 33
-29 18 -70 41 -91 52 -22 11 -54 35 -72 53 -18 17 -36 32 -39 32 -4 0 -21 11
-39 25 -18 14 -37 25 -43 25 -6 0 -19 12 -29 26 -10 14 -31 32 -46 40 -16 8
-28 21 -28 29 0 8 -11 22 -25 31 -14 9 -25 21 -25 27 0 5 -20 30 -45 54 -25
24 -45 47 -45 51 0 4 -15 24 -32 43 -18 20 -40 46 -48 59 -8 13 -36 52 -62 87
-27 35 -48 71 -48 79 0 8 -6 17 -14 20 -8 3 -20 19 -26 35 -7 16 -18 29 -25
29 -7 0 -15 8 -19 18 -7 22 -27 53 -43 67 -6 5 -20 24 -30 41 -21 36 -72 108
-102 144 -12 14 -31 39 -44 56 -51 71 -178 184 -206 184 -5 0 -11 7 -15 15 -3
8 -12 15 -19 15 -8 0 -40 14 -70 30 -31 17 -60 29 -64 28 -5 -1 -24 5 -44 14
-20 9 -47 19 -60 23 -13 4 -41 19 -61 31 -21 13 -43 24 -49 24 -14 0 -139 126
-139 140 0 5 -7 10 -15 10 -8 0 -15 5 -15 12 0 6 -12 27 -27 47 -59 77 -135
233 -147 303 -4 20 -11 38 -17 40 -6 2 -15 57 -21 123 -5 66 -14 124 -19 130
-12 12 -12 295 0 295 5 0 14 14 21 30 7 17 16 30 21 30 5 0 14 11 19 25 5 14
14 25 19 25 5 0 12 8 16 18 3 9 31 44 61 77 31 33 62 72 70 88 8 15 18 27 23
27 4 0 16 18 26 41 10 22 26 44 35 49 15 8 140 183 168 236 7 13 17 24 22 24
4 0 13 14 19 30 5 17 14 30 19 30 5 0 22 25 38 57 42 82 290 323 333 323 6 0
11 4 11 9 0 5 17 19 38 31 20 12 41 28 45 36 4 8 13 14 19 14 7 0 21 8 32 18
26 23 164 102 178 102 5 0 26 7 46 16 109 49 153 67 202 84 19 7 49 18 65 25
17 7 64 23 105 35 41 12 111 32 155 45 129 38 235 66 305 80 36 7 112 22 170
34 58 12 125 24 150 27 25 3 47 8 49 10 6 5 247 3 302 -3z m3029 -2613 c0 -5
-4 -10 -10 -10 -5 0 -10 5 -10 10 0 6 5 10 10 10 6 0 10 -4 10 -10z m-3160
-1840 c0 -5 -7 -10 -15 -10 -8 0 -15 5 -15 10 0 6 7 10 15 10 8 0 15 -4 15
-10z m4964 -460 l-13 -25 -1 31 c0 17 3 47 7 65 l7 34 7 -40 c5 -27 2 -48 -7
-65z m-634 -200 c0 -5 9 -10 19 -10 12 0 33 -20 55 -55 34 -50 36 -58 27 -92
-6 -21 -12 -49 -15 -63 -8 -37 -67 -100 -94 -100 -46 0 -118 54 -142 105 -8
18 -20 39 -27 47 -23 26 -4 83 43 132 39 41 48 46 89 46 25 0 45 -4 45 -10z
m-1070 -126 c0 -8 -4 -12 -10 -9 -5 3 -10 13 -10 21 0 8 5 12 10 9 6 -3 10
-13 10 -21z m190 -18 c0 -3 -4 -8 -10 -11 -5 -3 -10 -1 -10 4 0 6 5 11 10 11
6 0 10 -2 10 -4z m1404 -201 c-19 -15 -19 -15 0 -8 16 5 18 3 13 -11 -4 -10
-7 -26 -7 -37 0 -10 -7 -19 -15 -19 -8 0 -15 -4 -15 -9 0 -5 7 -11 15 -15 8
-3 15 -10 15 -15 0 -6 -7 -8 -15 -5 -12 5 -15 -2 -15 -30 0 -22 5 -36 13 -37
10 0 10 -2 0 -6 -17 -6 -17 -73 -1 -73 7 0 5 -5 -4 -12 -16 -13 -20 -83 -33
-588 -2 -85 -4 -159 -4 -165 -2 -21 -21 22 -21 48 0 15 -8 37 -19 48 -16 17
-32 72 -30 103 0 5 -4 12 -9 15 -8 5 -46 119 -83 251 -6 19 -14 44 -19 55 -5
11 -10 63 -12 115 -2 52 -2 85 0 73 3 -22 5 -22 28 -7 13 9 24 22 24 28 0 7 8
21 18 32 10 10 21 27 25 37 3 9 11 17 16 17 5 0 12 14 16 30 4 17 12 30 20 30
7 0 18 14 25 30 7 17 16 30 20 30 7 0 19 31 27 75 4 19 20 35 37 35 6 0 1 -7
-10 -15z m-1467 -197 c-3 -8 -6 -5 -6 6 -1 11 2 17 5 13 3 -3 4 -12 1 -19z
m688 -18 c-3 -5 -12 -10 -18 -10 -7 0 -6 4 3 10 19 12 23 12 15 0z m-585 -297
c-1 -39 -10 -33 -24 15 -6 16 -3 22 8 22 12 0 16 -10 16 -37z m645 -102 c-6
-5 -25 10 -25 20 0 5 6 4 14 -3 8 -7 12 -15 11 -17z m-6511 -347 c3 -8 2 -12
-4 -9 -6 3 -10 10 -10 16 0 14 7 11 14 -7z m26 -34 c0 -5 -4 -10 -10 -10 -5 0
-10 5 -10 10 0 6 5 10 10 10 6 0 10 -4 10 -10z m7670 -1038 c0 -49 -17 -55
-18 -7 -2 29 2 44 8 40 5 -3 10 -18 10 -33z m-5245 -782 c3 -5 1 -10 -4 -10
-6 0 -11 5 -11 10 0 6 2 10 4 10 3 0 8 -4 11 -10z m745 -230 c0 -5 -7 -10 -15
-10 -8 0 -15 5 -15 10 0 6 7 10 15 10 8 0 15 -4 15 -10z"/>
<path d="M8520 9970 c0 -5 5 -10 10 -10 6 0 10 5 10 10 0 6 -4 10 -10 10 -5 0
-10 -4 -10 -10z"/>
<path d="M8490 9920 c-8 -5 -12 -12 -9 -15 4 -3 12 1 19 10 14 17 11 19 -10 5z"/>
<path d="M6071 8943 c-1 -6 -4 -20 -7 -30 -5 -17 -5 -17 6 0 6 10 9 23 6 30
-3 9 -5 9 -5 0z"/>
<path d="M6090 8910 c0 -5 5 -10 10 -10 6 0 10 5 10 10 0 6 -4 10 -10 10 -5 0
-10 -4 -10 -10z"/>
<path d="M6431 8334 c0 -11 3 -14 6 -6 3 7 2 16 -1 19 -3 4 -6 -2 -5 -13z"/>
<path d="M5592 8235 c-6 -14 -16 -25 -21 -25 -5 0 -11 -9 -14 -20 -3 -11 -13
-20 -22 -20 -10 0 -31 -16 -48 -35 -16 -19 -36 -35 -43 -35 -8 0 -14 -4 -14
-9 0 -4 -11 -20 -25 -35 -14 -15 -25 -33 -25 -40 0 -8 -6 -19 -14 -25 -8 -6
-17 -33 -20 -59 -10 -65 -16 -83 -27 -77 -5 4 -9 3 -9 -2 -2 -60 -25 -151 -55
-208 -19 -38 -35 -75 -35 -82 0 -7 -11 -23 -25 -35 -14 -12 -25 -27 -25 -34 0
-6 -7 -17 -15 -24 -19 -16 -19 -39 1 -61 22 -24 52 -13 59 23 4 16 13 32 21
35 8 3 14 11 14 19 0 18 31 54 42 48 4 -3 8 -13 8 -23 0 -10 11 -30 25 -45 14
-15 25 -31 25 -36 0 -11 44 -60 54 -60 4 0 14 -6 21 -14 8 -7 36 -17 62 -20
73 -11 83 -15 76 -34 -6 -15 -4 -15 10 -4 10 9 51 15 109 17 80 3 215 28 270
50 18 7 31 46 22 69 -3 8 -15 18 -26 22 -11 3 -26 20 -33 38 -8 18 -21 38 -29
46 -9 7 -16 19 -16 26 0 8 -4 14 -8 14 -5 0 -16 16 -25 35 -9 19 -21 35 -26
35 -5 0 -23 42 -41 93 -18 50 -37 97 -41 102 -4 6 -13 50 -19 98 -6 48 -15 99
-20 113 -6 14 -7 42 -4 62 4 20 7 60 8 87 l1 50 -46 3 c-40 3 -47 0 -57 -23z
m-23 -217 c16 -85 22 -158 14 -158 -4 1 -19 7 -33 15 -31 18 -94 19 -120 3
-10 -7 -22 -9 -26 -5 -10 9 24 85 55 122 25 31 79 75 92 75 4 0 12 -24 18 -52z
m-155 -282 c-3 -9 -9 -14 -13 -11 -14 8 7 -106 26 -137 31 -54 154 -75 171
-29 3 9 10 19 15 22 5 4 10 34 11 68 l1 62 21 -25 c21 -24 23 -65 4 -91 -4 -5
-10 -21 -13 -35 -7 -29 -58 -90 -75 -90 -7 0 -28 -9 -48 -20 -33 -17 -40 -18
-65 -5 -38 20 -95 93 -104 133 -4 20 -13 32 -23 32 -16 1 -16 1 0 10 9 6 19
28 23 49 7 41 29 74 55 83 20 7 22 4 14 -16z"/>
<path d="M1170 7380 c0 -5 7 -10 16 -10 8 0 12 5 9 10 -3 6 -10 10 -16 10 -5
0 -9 -4 -9 -10z"/>
<path d="M7770 6718 c0 -9 5 -20 11 -23 17 -11 20 0 4 21 -13 17 -14 17 -15 2z"/>
<path d="M8270 6280 c0 -5 7 -7 15 -4 8 4 15 8 15 10 0 2 -7 4 -15 4 -8 0 -15
-4 -15 -10z"/>
<path d="M14530 6050 c0 -5 5 -10 11 -10 5 0 7 5 4 10 -3 6 -8 10 -11 10 -2 0
-4 -4 -4 -10z"/>
<path d="M6710 5990 c0 -5 5 -10 10 -10 6 0 10 5 10 10 0 6 -4 10 -10 10 -5 0
-10 -4 -10 -10z"/>
<path d="M898 5949 c-30 -32 -35 -49 -16 -49 6 0 8 -3 5 -6 -9 -10 12 -46 24
-39 5 4 9 0 9 -8 0 -8 6 -20 14 -27 8 -6 13 -17 10 -23 -2 -7 7 -25 21 -41 14
-16 25 -39 25 -52 0 -13 5 -26 10 -29 6 -3 15 -26 21 -50 6 -24 17 -46 25 -49
8 -3 14 -11 14 -18 0 -7 6 -25 14 -40 8 -14 19 -42 26 -62 6 -20 17 -42 23
-49 18 -20 47 -77 47 -93 0 -8 5 -14 11 -14 5 0 7 -4 4 -10 -3 -5 -2 -10 3
-10 5 0 17 -19 28 -42 10 -24 23 -46 28 -50 11 -7 67 -105 97 -168 12 -25 25
-47 28 -50 10 -8 61 -89 61 -97 0 -5 12 -19 25 -32 14 -13 25 -32 25 -42 0
-10 4 -19 9 -19 5 0 15 -15 22 -34 7 -19 21 -37 30 -39 10 -3 21 -18 25 -33 4
-16 11 -33 16 -39 5 -5 23 -32 40 -60 17 -27 44 -63 59 -80 15 -16 30 -40 33
-52 5 -14 12 -20 22 -16 9 3 14 -2 14 -16 0 -12 8 -29 18 -39 9 -9 26 -36 37
-59 11 -23 23 -39 27 -37 5 3 8 1 8 -4 0 -6 12 -24 28 -40 15 -17 43 -50 62
-73 31 -37 131 -145 161 -174 6 -5 25 -25 42 -44 70 -76 130 -131 143 -131 8
0 14 -9 14 -21 0 -12 8 -23 20 -26 10 -3 22 -14 25 -24 4 -11 11 -17 16 -14 5
4 9 1 9 -5 0 -6 11 -16 25 -22 14 -6 28 -22 31 -35 4 -13 13 -23 20 -23 8 0
17 -6 20 -14 3 -8 20 -20 37 -27 18 -7 76 -57 131 -111 54 -54 101 -98 105
-98 3 0 26 -19 51 -41 25 -22 66 -57 93 -77 26 -20 47 -40 47 -44 0 -4 6 -8
13 -8 7 0 24 -11 39 -25 15 -14 33 -25 40 -25 12 0 97 -60 166 -117 19 -16 38
-30 44 -32 5 -2 33 -18 61 -37 28 -19 55 -34 60 -34 4 0 20 -8 35 -19 54 -36
188 -108 215 -115 15 -3 27 -11 27 -16 0 -6 6 -10 13 -10 8 0 46 -16 84 -36
39 -19 77 -36 84 -38 13 -2 33 -10 137 -57 23 -10 42 -23 42 -29 0 -5 6 -10
13 -10 12 0 145 -49 202 -74 17 -8 48 -20 70 -27 22 -7 45 -16 50 -20 6 -3 24
-9 40 -13 17 -4 44 -13 60 -21 17 -7 57 -23 90 -35 33 -13 64 -27 70 -32 5 -4
19 -8 31 -8 12 0 35 -7 50 -15 16 -8 35 -15 42 -15 17 0 30 39 23 68 -6 22
-25 30 -161 70 -85 25 -161 52 -168 59 -7 7 -25 13 -39 13 -18 0 -24 4 -19 15
3 8 1 15 -4 15 -6 0 -10 -4 -10 -9 0 -13 -98 23 -200 73 -25 13 -66 29 -93 36
-26 7 -50 17 -53 21 -3 5 -13 9 -22 9 -14 0 -118 45 -195 85 -16 8 -35 15 -43
15 -8 0 -14 4 -14 8 0 5 -32 24 -71 43 -40 19 -75 43 -80 54 -7 18 -8 19 -8 1
-1 -17 -3 -17 -23 -4 -13 8 -42 20 -65 28 -24 7 -43 16 -43 20 0 8 -140 98
-187 119 -13 6 -23 15 -23 21 0 5 -7 10 -15 10 -8 0 -15 5 -15 10 0 6 -11 15
-25 20 -14 5 -35 19 -48 30 -43 40 -82 67 -103 74 -12 4 -29 21 -37 39 -9 18
-20 31 -24 31 -15 -3 -53 16 -53 26 0 5 -5 10 -11 10 -25 0 -339 288 -339 310
0 5 -9 11 -19 15 -10 3 -29 21 -42 40 -13 19 -34 38 -46 44 -26 12 -43 26
-128 109 -36 34 -67 62 -70 62 -2 0 -24 21 -47 47 -24 26 -73 77 -110 114 -38
37 -68 71 -68 76 0 4 -18 28 -40 53 -51 58 -49 56 -90 115 -19 28 -38 52 -42
53 -5 2 -8 8 -8 13 0 10 -12 26 -41 57 -9 9 -20 27 -23 40 -4 12 -11 22 -16
22 -5 0 -17 15 -26 33 -9 17 -25 41 -35 52 -27 29 -63 81 -104 153 -20 34 -40
62 -45 62 -4 0 -11 14 -15 30 -4 17 -10 30 -15 30 -9 0 -65 91 -112 180 -7 14
-16 30 -21 35 -26 34 -67 102 -67 113 0 6 -4 12 -9 12 -5 0 -12 11 -15 25 -3
13 -15 32 -25 42 -10 10 -24 35 -32 56 -7 21 -21 46 -31 57 -10 11 -18 28 -18
40 0 11 -4 20 -10 20 -5 0 -10 9 -10 19 0 11 -11 32 -24 48 -13 15 -27 39 -31
53 -4 14 -11 30 -15 35 -5 6 -13 30 -20 54 -6 24 -18 50 -26 58 -8 8 -14 22
-14 31 0 10 -6 26 -14 37 -7 11 -16 34 -20 50 -4 17 -14 37 -21 45 -7 8 -15
26 -17 39 -4 34 -19 34 -50 0z"/>
<path d="M8741 5764 c0 -11 3 -14 6 -6 3 7 2 16 -1 19 -3 4 -6 -2 -5 -13z"/>
<path d="M3796 5751 c-4 -5 -3 -16 0 -24 4 -11 1 -14 -13 -11 -14 4 -19 0 -19
-15 0 -43 39 -18 51 32 7 26 -7 39 -19 18z"/>
<path d="M6790 5740 c0 -5 5 -10 11 -10 5 0 7 5 4 10 -3 6 -8 10 -11 10 -2 0
-4 -4 -4 -10z"/>
<path d="M8730 5710 c0 -5 5 -10 10 -10 6 0 10 5 10 10 0 6 -4 10 -10 10 -5 0
-10 -4 -10 -10z"/>
<path d="M3235 5600 c3 -5 8 -10 11 -10 2 0 4 5 4 10 0 6 -5 10 -11 10 -5 0
-7 -4 -4 -10z"/>
<path d="M6705 5570 c3 -5 8 -10 11 -10 2 0 4 5 4 10 0 6 -5 10 -11 10 -5 0
-7 -4 -4 -10z"/>
<path d="M13830 5195 c-11 -13 -10 -14 4 -9 9 3 16 10 16 15 0 13 -6 11 -20
-6z"/>
<path d="M13770 5100 c-6 -11 -7 -20 -2 -20 6 0 12 9 15 20 3 11 3 20 1 20 -2
0 -8 -9 -14 -20z"/>
<path d="M7740 4919 c0 -5 5 -7 10 -4 6 3 10 8 10 11 0 2 -4 4 -10 4 -5 0 -10
-5 -10 -11z"/>
<path d="M7495 4910 c-3 -5 -1 -10 4 -10 6 0 11 5 11 10 0 6 -2 10 -4 10 -3 0
-8 -4 -11 -10z"/>
<path d="M7611 4880 c3 -53 8 -72 19 -65 8 5 -3 92 -14 102 -4 4 -6 -13 -5
-37z"/>
<path d="M5856 4655 c-9 -26 -7 -32 5 -12 6 10 9 21 6 23 -2 3 -7 -2 -11 -11z"/>
<path d="M8607 4223 c-2 -4 3 -24 11 -43 8 -19 17 -29 19 -22 3 7 1 20 -3 30
-4 9 -8 20 -8 24 -2 12 -14 19 -19 11z"/>
<path d="M1150 4054 c0 -8 5 -12 10 -9 6 4 8 11 5 16 -9 14 -15 11 -15 -7z"/>
<path d="M8680 4020 c0 -5 5 -10 10 -10 6 0 10 5 10 10 0 6 -4 10 -10 10 -5 0
-10 -4 -10 -10z"/>
<path d="M1170 3790 c0 -5 5 -10 10 -10 6 0 10 5 10 10 0 6 -4 10 -10 10 -5 0
-10 -4 -10 -10z"/>
<path d="M14555 3402 c-11 -3 -23 -9 -27 -16 -5 -8 -8 -8 -8 0 0 8 -16 8 -52
2 -29 -5 -65 -11 -81 -13 -15 -2 -33 -8 -40 -12 -6 -4 -20 -6 -29 -5 -10 2
-18 -1 -18 -6 0 -10 -29 -22 -62 -26 -10 -2 -26 -10 -36 -19 -10 -9 -24 -17
-31 -17 -16 0 -91 -39 -108 -56 -8 -7 -27 -21 -43 -31 -17 -9 -30 -21 -30 -26
0 -5 -6 -7 -13 -4 -7 3 -21 -1 -31 -9 -11 -7 -22 -11 -27 -9 -4 3 -16 -6 -27
-20 -11 -14 -23 -25 -26 -25 -14 0 -55 -44 -49 -53 3 -5 -3 -6 -16 -2 -17 5
-21 2 -21 -14 0 -15 -6 -20 -22 -18 -15 1 -23 -3 -23 -15 0 -18 -41 -58 -60
-58 -7 0 -16 -7 -19 -16 -3 -8 -10 -12 -16 -9 -5 3 -10 0 -10 -8 0 -7 -12 -20
-26 -27 -14 -8 -30 -22 -35 -32 -5 -10 -15 -18 -22 -18 -8 0 -28 -20 -47 -45
-18 -24 -36 -43 -40 -42 -7 2 -100 -80 -100 -88 0 -3 -25 -30 -55 -60 -30 -31
-55 -60 -55 -65 0 -5 -11 -17 -25 -26 -14 -9 -25 -20 -25 -25 0 -5 -15 -24
-34 -42 -19 -17 -48 -54 -64 -81 -17 -26 -44 -60 -60 -75 -16 -14 -37 -42 -47
-61 -10 -18 -24 -40 -31 -48 -8 -7 -14 -18 -14 -24 0 -6 -22 -41 -50 -79 -27
-38 -50 -73 -50 -79 0 -5 -4 -10 -8 -10 -5 0 -22 -26 -37 -57 -16 -32 -34 -61
-41 -65 -6 -4 -15 -20 -19 -35 -3 -15 -10 -30 -14 -33 -14 -9 -91 -127 -91
-139 0 -6 -4 -11 -9 -11 -4 0 -22 -26 -38 -57 -82 -160 -109 -209 -120 -218
-6 -5 -22 -30 -34 -53 -12 -24 -28 -46 -35 -49 -22 -8 -16 -22 9 -18 58 9 82
22 92 51 5 16 13 31 16 34 3 3 12 22 20 43 7 20 19 37 26 37 8 0 16 13 19 30
4 16 10 27 15 24 5 -3 9 4 9 15 0 11 7 26 15 35 11 11 12 17 3 22 -7 5 -4 10
11 15 12 5 24 17 28 26 4 10 9 20 12 23 15 13 51 71 65 104 8 20 20 36 25 36
6 0 16 18 22 40 7 22 16 40 21 40 4 0 8 5 8 11 0 6 11 25 24 42 13 18 27 42
31 55 3 12 11 22 16 22 5 0 9 4 9 10 0 10 25 42 65 85 11 12 35 49 53 83 33
62 65 105 115 153 15 15 27 32 27 38 0 6 9 15 20 21 11 6 20 15 20 21 0 16 51
79 95 119 71 63 138 138 148 165 4 8 13 15 20 15 8 0 25 13 38 29 13 15 34 31
47 35 12 4 20 11 17 16 -2 4 31 35 75 69 44 34 86 68 94 76 8 8 19 15 25 15 6
0 15 9 21 20 6 11 16 20 23 20 7 0 44 30 82 65 39 36 73 65 77 65 4 0 28 15
53 33 133 93 261 151 427 192 162 41 201 41 448 2 85 -14 185 -28 223 -31 63
-6 67 -5 67 14 0 12 5 18 10 15 16 -10 11 8 -8 33 -18 23 -30 26 -162 36 -30
3 -55 5 -55 6 0 1 -36 3 -80 6 -43 2 -106 9 -138 15 -54 9 -144 10 -192 1z
m-778 -398 c-3 -3 -12 -4 -19 -1 -8 3 -5 6 6 6 11 1 17 -2 13 -5z"/>
<path d="M6177 2985 c-4 -8 -2 -17 2 -20 5 -2 11 4 14 15 6 23 -8 27 -16 5z"/>
<path d="M6232 2940 c0 -14 2 -19 5 -12 2 6 2 18 0 25 -3 6 -5 1 -5 -13z"/>
<path d="M6251 2914 c0 -11 3 -14 6 -6 3 7 2 16 -1 19 -3 4 -6 -2 -5 -13z"/>
<path d="M6237 2814 c-3 -5 1 -15 9 -22 16 -14 18 -5 5 17 -5 7 -11 9 -14 5z"/>
<path d="M2265 2590 c-3 -5 -1 -10 4 -10 6 0 11 5 11 10 0 6 -2 10 -4 10 -3 0
-8 -4 -11 -10z"/>
<path d="M8966 2498 c-10 -38 -7 -58 9 -58 18 0 20 26 3 34 -10 5 -10 7 0 12
14 6 17 34 3 34 -5 0 -11 -10 -15 -22z"/>
<path d="M2350 2500 c0 -5 5 -10 11 -10 5 0 7 5 4 10 -3 6 -8 10 -11 10 -2 0
-4 -4 -4 -10z"/>
<path d="M2380 2470 c19 -13 30 -13 30 0 0 6 -10 10 -22 10 -19 0 -20 -2 -8
-10z"/>
<path d="M2460 2411 c0 -6 4 -13 10 -16 6 -3 7 1 4 9 -7 18 -14 21 -14 7z"/>
<path d="M8967 2413 c-12 -11 -8 -23 8 -23 8 0 15 7 15 15 0 16 -12 20 -23 8z"/>
<path d="M8970 2366 c0 -2 7 -7 16 -10 8 -3 12 -2 9 4 -6 10 -25 14 -25 6z"/>
<path d="M2530 2340 c0 -5 5 -10 10 -10 6 0 10 5 10 10 0 6 -4 10 -10 10 -5 0
-10 -4 -10 -10z"/>
<path d="M8521 2334 c0 -11 3 -14 6 -6 3 7 2 16 -1 19 -3 4 -6 -2 -5 -13z"/>
<path d="M8961 2308 c0 -16 2 -18 6 -8 3 8 11 18 17 22 7 5 4 8 -6 8 -12 0
-18 -7 -17 -22z"/>
<path d="M8536 2261 c-4 -7 -5 -15 -2 -18 9 -9 19 4 14 18 -4 11 -6 11 -12 0z"/>
<path d="M8572 2170 c0 -14 2 -19 5 -12 2 6 2 18 0 25 -3 6 -5 1 -5 -13z"/>
<path d="M11570 1670 c0 -5 5 -10 10 -10 6 0 10 5 10 10 0 6 -4 10 -10 10 -5
0 -10 -4 -10 -10z"/>
<path d="M6710 1580 c0 -11 7 -20 15 -20 17 0 18 2 9 24 -9 23 -24 20 -24 -4z"/>
<path d="M4880 1370 c11 -21 40 -28 40 -10 0 6 -7 10 -15 10 -8 0 -15 5 -15
10 0 6 -5 10 -10 10 -7 0 -7 -6 0 -20z"/>
<path d="M6790 1330 c0 -5 5 -10 10 -10 6 0 10 5 10 10 0 6 -4 10 -10 10 -5 0
-10 -4 -10 -10z"/>
<path d="M10370 910 c0 -5 5 -10 10 -10 6 0 10 5 10 10 0 6 -4 10 -10 10 -5 0
-10 -4 -10 -10z"/>
</g>
</svg>
